# WaveFront *.obj file (generated by Autodesk ATF)

mtllib anode.mtl

g Body1

v 0.097000 0.176000 0.040000
v 0.097000 -0.065000 0.040000
v 0.097000 -0.065000 0.041000
v 0.097000 0.176000 0.041000
v -0.097000 0.176000 0.040000
v -0.097000 0.176000 0.041000
v -0.097000 -0.065000 0.040000
v -0.097000 -0.065000 0.041000
v -0.480000 0.070000 0.040000
v -0.462770 0.062562 0.040000
v -0.448015 0.050966 0.040000
v -0.436714 0.035984 0.040000
v -0.429618 0.018610 0.040000
v -0.427199 -0.000000 0.040000
v -0.429618 -0.018610 0.040000
v -0.436714 -0.035984 0.040000
v -0.448015 -0.050966 0.040000
v -0.462770 -0.062562 0.040000
v -0.480000 -0.070000 0.040000
v -0.480000 -0.070000 0.041000
v -0.462770 -0.062562 0.041000
v -0.448015 -0.050966 0.041000
v -0.436714 -0.035984 0.041000
v -0.429618 -0.018610 0.041000
v -0.427199 -0.000000 0.041000
v -0.429618 0.018610 0.041000
v -0.436714 0.035984 0.041000
v -0.448015 0.050966 0.041000
v -0.462770 0.062562 0.041000
v -0.480000 0.070000 0.041000
v -0.480000 0.480000 0.040000
v -0.480000 0.480000 0.041000
v 0.480000 0.480000 0.040000
v 0.480000 0.480000 0.041000
v 0.480000 0.070000 0.040000
v 0.480000 0.070000 0.041000
v 0.480000 -0.070000 0.040000
v 0.462770 -0.062562 0.040000
v 0.448015 -0.050966 0.040000
v 0.436714 -0.035984 0.040000
v 0.429618 -0.018610 0.040000
v 0.427199 0.000000 0.040000
v 0.429618 0.018610 0.040000
v 0.436714 0.035984 0.040000
v 0.448015 0.050966 0.040000
v 0.462770 0.062562 0.040000
v 0.462770 0.062562 0.041000
v 0.448015 0.050966 0.041000
v 0.436714 0.035984 0.041000
v 0.429618 0.018610 0.041000
v 0.427199 0.000000 0.041000
v 0.429618 -0.018610 0.041000
v 0.436714 -0.035984 0.041000
v 0.448015 -0.050966 0.041000
v 0.462770 -0.062562 0.041000
v 0.480000 -0.070000 0.041000
v 0.480000 -0.480000 0.040000
v 0.480000 -0.480000 0.041000
v -0.480000 -0.480000 0.040000
v -0.480000 -0.480000 0.041000
vt 0.000000 0.000000 0.000000
vt 0.241000 0.000000 0.000000
vt 0.000000 0.001000 0.000000
vt 0.241000 0.001000 0.000000
vt 0.000000 0.000000 0.000000
vt 0.194000 0.000000 0.000000
vt 0.000000 0.001000 0.000000
vt 0.194000 0.001000 0.000000
vt 0.000000 0.000000 0.000000
vt 0.241000 0.000000 0.000000
vt 0.000000 0.001000 0.000000
vt 0.241000 0.001000 0.000000
vt 0.000000 0.000000 0.000000
vt 0.194000 0.000000 0.000000
vt 0.000000 0.001000 0.000000
vt 0.194000 0.001000 0.000000
vt 0.001000 0.188190 0.000000
vt 0.000000 0.188190 0.000000
vt 0.001000 0.169371 0.000000
vt 0.000000 0.169371 0.000000
vt 0.001000 0.150552 0.000000
vt -0.000000 0.150552 0.000000
vt 0.001000 0.131733 0.000000
vt 0.000000 0.131733 0.000000
vt 0.001000 0.112914 0.000000
vt 0.000000 0.112914 0.000000
vt 0.001000 0.094095 0.000000
vt 0.000000 0.094095 0.000000
vt 0.001000 0.075276 0.000000
vt -0.000000 0.075276 0.000000
vt 0.001000 0.056457 0.000000
vt 0.000000 0.056457 0.000000
vt 0.001000 0.037638 0.000000
vt 0.000000 0.037638 0.000000
vt 0.001000 0.018819 0.000000
vt -0.000000 0.018819 0.000000
vt 0.001000 0.000000 0.000000
vt 0.000000 0.000000 0.000000
vt -0.000000 0.000000 0.000000
vt 0.410000 0.000000 0.000000
vt 0.000000 0.001000 0.000000
vt 0.410000 0.001000 0.000000
vt -0.000000 0.000000 0.000000
vt 0.960000 0.000000 0.000000
vt 0.000000 0.001000 0.000000
vt 0.960000 0.001000 0.000000
vt 0.000000 0.000000 0.000000
vt 0.410000 0.000000 0.000000
vt 0.000000 0.001000 0.000000
vt 0.410000 0.001000 0.000000
vt 0.001000 0.188190 0.000000
vt -0.000000 0.188190 0.000000
vt 0.001000 0.169371 0.000000
vt 0.000000 0.169371 0.000000
vt 0.001000 0.150552 0.000000
vt 0.000000 0.150552 0.000000
vt 0.001000 0.131733 0.000000
vt -0.000000 0.131733 0.000000
vt 0.001000 0.112914 0.000000
vt 0.000000 0.112914 0.000000
vt 0.001000 0.094095 0.000000
vt 0.000000 0.094095 0.000000
vt 0.001000 0.075276 0.000000
vt -0.000000 0.075276 0.000000
vt 0.001000 0.056457 0.000000
vt 0.000000 0.056457 0.000000
vt 0.001000 0.037638 0.000000
vt -0.000000 0.037638 0.000000
vt 0.001000 0.018819 0.000000
vt -0.000000 0.018819 0.000000
vt 0.001000 0.000000 0.000000
vt -0.000000 0.000000 0.000000
vt 0.000000 0.000000 0.000000
vt 0.410000 0.000000 0.000000
vt 0.000000 0.001000 0.000000
vt 0.410000 0.001000 0.000000
vt 0.000000 0.000000 0.000000
vt 0.960000 0.000000 0.000000
vt 0.000000 0.001000 0.000000
vt 0.960000 0.001000 0.000000
vt 0.000000 0.000000 0.000000
vt 0.410000 0.000000 0.000000
vt 0.000000 0.001000 0.000000
vt 0.410000 0.001000 0.000000
vt 0.097000 0.065000 0.000000
vt 0.480000 0.480000 0.000000
vt -0.097000 0.065000 0.000000
vt -0.480000 0.480000 0.000000
vt -0.462770 0.062562 0.000000
vt -0.480000 0.070000 0.000000
vt 0.097000 -0.176000 0.000000
vt 0.429618 -0.018610 0.000000
vt 0.427199 0.000000 0.000000
vt 0.429618 0.018610 0.000000
vt -0.097000 -0.176000 0.000000
vt 0.480000 -0.480000 0.000000
vt 0.462770 -0.062562 0.000000
vt 0.448015 -0.050966 0.000000
vt -0.429618 -0.018610 0.000000
vt -0.436714 -0.035984 0.000000
vt -0.448015 -0.050966 0.000000
vt 0.480000 0.070000 0.000000
vt 0.462770 0.062562 0.000000
vt 0.448015 0.050966 0.000000
vt 0.436714 0.035984 0.000000
vt -0.448015 0.050966 0.000000
vt -0.436714 0.035984 0.000000
vt -0.429618 0.018610 0.000000
vt -0.427199 -0.000000 0.000000
vt -0.462770 -0.062562 0.000000
vt -0.480000 -0.480000 0.000000
vt -0.480000 -0.070000 0.000000
vt 0.480000 -0.070000 0.000000
vt 0.436714 -0.035984 0.000000
vt 0.097000 0.065000 0.000000
vt -0.480000 0.480000 0.000000
vt -0.097000 0.065000 0.000000
vt -0.462770 0.062562 0.000000
vt -0.448015 0.050966 0.000000
vt 0.097000 -0.176000 0.000000
vt 0.429618 -0.018610 0.000000
vt 0.427199 -0.000000 0.000000
vt 0.429618 0.018610 0.000000
vt -0.097000 -0.176000 0.000000
vt -0.480000 -0.480000 0.000000
vt 0.480000 -0.480000 0.000000
vt 0.462770 -0.062562 0.000000
vt 0.480000 -0.070000 0.000000
vt -0.429618 -0.018610 0.000000
vt -0.436714 -0.035984 0.000000
vt -0.448015 -0.050966 0.000000
vt -0.480000 0.070000 0.000000
vt -0.436714 0.035984 0.000000
vt -0.429618 0.018610 0.000000
vt -0.427199 0.000000 0.000000
vt -0.462770 -0.062562 0.000000
vt -0.480000 -0.070000 0.000000
vt 0.448015 -0.050966 0.000000
vt 0.436714 -0.035984 0.000000
vt 0.436714 0.035984 0.000000
vt 0.448015 0.050966 0.000000
vt 0.462770 0.062562 0.000000
vt 0.480000 0.070000 0.000000
vt 0.480000 0.480000 0.000000
vn -1.000000 0.000000 0.000000
vn -1.000000 0.000000 0.000000
vn -1.000000 0.000000 0.000000
vn -1.000000 0.000000 0.000000
vn 0.000000 -1.000000 0.000000
vn 0.000000 -1.000000 0.000000
vn 0.000000 -1.000000 0.000000
vn 0.000000 -1.000000 0.000000
vn 1.000000 0.000000 0.000000
vn 1.000000 0.000000 0.000000
vn 1.000000 0.000000 0.000000
vn 1.000000 0.000000 0.000000
vn -0.000000 1.000000 0.000000
vn -0.000000 1.000000 0.000000
vn -0.000000 1.000000 0.000000
vn -0.000000 1.000000 0.000000
vn -0.274721 -0.961524 0.000000
vn -0.274721 -0.961524 0.000000
vn -0.511388 -0.859350 0.000000
vn -0.511388 -0.859350 0.000000
vn -0.714072 -0.700072 0.000000
vn -0.714072 -0.700072 0.000000
vn -0.869307 -0.494273 0.000000
vn -0.869307 -0.494273 0.000000
vn -0.966775 -0.255630 0.000000
vn -0.966775 -0.255630 0.000000
vn -1.000000 0.000000 0.000000
vn -1.000000 0.000000 0.000000
vn -0.966775 0.255630 0.000000
vn -0.966775 0.255630 0.000000
vn -0.869307 0.494273 0.000000
vn -0.869307 0.494273 0.000000
vn -0.714072 0.700072 0.000000
vn -0.714072 0.700072 0.000000
vn -0.511388 0.859350 0.000000
vn -0.511388 0.859350 0.000000
vn -0.274721 0.961524 0.000000
vn -0.274721 0.961524 0.000000
vn -1.000000 0.000000 0.000000
vn -1.000000 0.000000 0.000000
vn -1.000000 0.000000 0.000000
vn -1.000000 0.000000 0.000000
vn 0.000000 1.000000 0.000000
vn 0.000000 1.000000 0.000000
vn 0.000000 1.000000 0.000000
vn 0.000000 1.000000 0.000000
vn 1.000000 0.000000 0.000000
vn 1.000000 0.000000 0.000000
vn 1.000000 0.000000 0.000000
vn 1.000000 0.000000 0.000000
vn 0.274721 0.961524 -0.000000
vn 0.274721 0.961524 -0.000000
vn 0.511388 0.859350 -0.000000
vn 0.511388 0.859350 -0.000000
vn 0.714073 0.700072 -0.000000
vn 0.714073 0.700072 -0.000000
vn 0.869307 0.494273 -0.000000
vn 0.869307 0.494273 -0.000000
vn 0.966775 0.255630 -0.000000
vn 0.966775 0.255630 -0.000000
vn 1.000000 -0.000000 0.000000
vn 1.000000 -0.000000 0.000000
vn 0.966775 -0.255630 0.000000
vn 0.966775 -0.255630 0.000000
vn 0.869307 -0.494273 0.000000
vn 0.869307 -0.494273 0.000000
vn 0.714072 -0.700072 0.000000
vn 0.714072 -0.700072 0.000000
vn 0.511388 -0.859350 0.000000
vn 0.511388 -0.859350 0.000000
vn 0.274721 -0.961524 0.000000
vn 0.274721 -0.961524 0.000000
vn 1.000000 0.000000 -0.000000
vn 1.000000 0.000000 -0.000000
vn 1.000000 0.000000 -0.000000
vn 1.000000 0.000000 -0.000000
vn 0.000000 -1.000000 0.000000
vn 0.000000 -1.000000 0.000000
vn 0.000000 -1.000000 0.000000
vn 0.000000 -1.000000 0.000000
vn -1.000000 -0.000000 0.000000
vn -1.000000 -0.000000 0.000000
vn -1.000000 -0.000000 0.000000
vn -1.000000 -0.000000 0.000000
vn 0.000000 0.000000 1.000000
vn 0.000000 0.000000 1.000000
vn 0.000000 0.000000 1.000000
vn 0.000000 0.000000 1.000000
vn 0.000000 0.000000 1.000000
vn 0.000000 0.000000 1.000000
vn 0.000000 0.000000 1.000000
vn 0.000000 0.000000 1.000000
vn 0.000000 0.000000 1.000000
vn 0.000000 0.000000 1.000000
vn 0.000000 0.000000 1.000000
vn 0.000000 0.000000 1.000000
vn 0.000000 0.000000 1.000000
vn 0.000000 0.000000 1.000000
vn 0.000000 0.000000 1.000000
vn 0.000000 0.000000 1.000000
vn 0.000000 0.000000 1.000000
vn 0.000000 0.000000 1.000000
vn 0.000000 0.000000 1.000000
vn 0.000000 0.000000 1.000000
vn 0.000000 0.000000 1.000000
vn 0.000000 0.000000 1.000000
vn 0.000000 0.000000 1.000000
vn 0.000000 0.000000 1.000000
vn 0.000000 0.000000 1.000000
vn 0.000000 0.000000 1.000000
vn 0.000000 0.000000 1.000000
vn 0.000000 0.000000 1.000000
vn 0.000000 0.000000 1.000000
vn 0.000000 0.000000 1.000000
vn -0.000000 -0.000000 -1.000000
vn -0.000000 -0.000000 -1.000000
vn -0.000000 -0.000000 -1.000000
vn -0.000000 -0.000000 -1.000000
vn -0.000000 -0.000000 -1.000000
vn -0.000000 -0.000000 -1.000000
vn -0.000000 -0.000000 -1.000000
vn -0.000000 -0.000000 -1.000000
vn -0.000000 -0.000000 -1.000000
vn -0.000000 -0.000000 -1.000000
vn -0.000000 -0.000000 -1.000000
vn -0.000000 -0.000000 -1.000000
vn -0.000000 -0.000000 -1.000000
vn -0.000000 -0.000000 -1.000000
vn -0.000000 -0.000000 -1.000000
vn -0.000000 -0.000000 -1.000000
vn -0.000000 -0.000000 -1.000000
vn -0.000000 -0.000000 -1.000000
vn -0.000000 -0.000000 -1.000000
vn -0.000000 -0.000000 -1.000000
vn -0.000000 -0.000000 -1.000000
vn -0.000000 -0.000000 -1.000000
vn -0.000000 -0.000000 -1.000000
vn -0.000000 -0.000000 -1.000000
vn -0.000000 -0.000000 -1.000000
vn -0.000000 -0.000000 -1.000000
vn -0.000000 -0.000000 -1.000000
vn -0.000000 -0.000000 -1.000000
vn -0.000000 -0.000000 -1.000000
vn -0.000000 -0.000000 -1.000000
usemtl Gold_-_Polished
f 1/1/1 2/2/2 4/3/3
f 4/3/3 2/2/2 3/4/4
f 5/5/5 1/6/6 6/7/7
f 6/7/7 1/6/6 4/8/8
f 7/9/9 5/10/10 8/11/11
f 8/11/11 5/10/10 6/12/12
f 2/13/13 7/14/14 3/15/15
f 3/15/15 7/14/14 8/16/16
f 30/17/17 9/18/18 29/19/19
f 29/19/19 9/18/18 10/20/20
f 29/19/19 10/20/20 28/21/21
f 28/21/21 10/20/20 11/22/22
f 28/21/21 11/22/22 27/23/23
f 27/23/23 11/22/22 12/24/24
f 27/23/23 12/24/24 26/25/25
f 26/25/25 12/24/24 13/26/26
f 26/25/25 13/26/26 25/27/27
f 25/27/27 13/26/26 14/28/28
f 25/27/27 14/28/28 24/29/29
f 24/29/29 14/28/28 15/30/30
f 24/29/29 15/30/30 23/31/31
f 23/31/31 15/30/30 16/32/32
f 23/31/31 16/32/32 22/33/33
f 22/33/33 16/32/32 17/34/34
f 22/33/33 17/34/34 21/35/35
f 21/35/35 17/34/34 18/36/36
f 21/35/35 18/36/36 20/37/37
f 20/37/37 18/36/36 19/38/38
f 31/39/39 9/40/40 32/41/41
f 32/41/41 9/40/40 30/42/42
f 33/43/43 31/44/44 34/45/45
f 34/45/45 31/44/44 32/46/46
f 35/47/47 33/48/48 36/49/49
f 36/49/49 33/48/48 34/50/50
f 56/51/51 37/52/52 55/53/53
f 55/53/53 37/52/52 38/54/54
f 55/53/53 38/54/54 54/55/55
f 54/55/55 38/54/54 39/56/56
f 54/55/55 39/56/56 53/57/57
f 53/57/57 39/56/56 40/58/58
f 53/57/57 40/58/58 52/59/59
f 52/59/59 40/58/58 41/60/60
f 52/59/59 41/60/60 51/61/61
f 51/61/61 41/60/60 42/62/62
f 51/61/61 42/62/62 50/63/63
f 50/63/63 42/62/62 43/64/64
f 50/63/63 43/64/64 49/65/65
f 49/65/65 43/64/64 44/66/66
f 49/65/65 44/66/66 48/67/67
f 48/67/67 44/66/66 45/68/68
f 48/67/67 45/68/68 47/69/69
f 47/69/69 45/68/68 46/70/70
f 47/69/69 46/70/70 36/71/71
f 36/71/71 46/70/70 35/72/72
f 57/73/73 37/74/74 58/75/75
f 58/75/75 37/74/74 56/76/76
f 59/77/77 57/78/78 60/79/79
f 60/79/79 57/78/78 58/80/80
f 19/81/81 59/82/82 20/83/83
f 20/83/83 59/82/82 60/84/84
f 8/85/85 60/86/86 3/87/87
f 3/87/87 60/86/86 58/88/88
f 3/87/87 58/88/88 55/89/89
f 55/89/89 58/88/88 56/90/90
f 6/91/91 26/92/92 8/85/85
f 8/85/85 26/92/92 25/93/93
f 8/85/85 25/93/93 24/94/94
f 4/95/95 32/96/96 6/91/91
f 6/91/91 32/96/96 29/97/97
f 6/91/91 29/97/97 28/98/98
f 3/87/87 50/99/99 4/95/95
f 4/95/95 50/99/99 49/100/100
f 4/95/95 49/100/100 48/101/101
f 20/102/102 60/86/86 21/103/103
f 21/103/103 60/86/86 8/85/85
f 21/103/103 8/85/85 22/104/104
f 22/104/104 8/85/85 23/105/105
f 23/105/105 8/85/85 24/94/94
f 55/89/89 54/106/106 3/87/87
f 3/87/87 54/106/106 53/107/107
f 3/87/87 53/107/107 52/108/108
f 52/108/108 51/109/109 3/87/87
f 3/87/87 51/109/109 50/99/99
f 48/101/101 47/110/110 4/95/95
f 4/95/95 47/110/110 34/111/111
f 4/95/95 34/111/111 32/96/96
f 47/110/110 36/112/112 34/111/111
f 32/96/96 30/113/113 29/97/97
f 28/98/98 27/114/114 6/91/91
f 6/91/91 27/114/114 26/92/92
f 2/115/115 59/116/116 7/117/117
f 7/117/117 59/116/116 18/118/118
f 7/117/117 18/118/118 17/119/119
f 1/120/120 43/121/121 2/115/115
f 2/115/115 43/121/121 42/122/122
f 2/115/115 42/122/122 41/123/123
f 5/124/124 31/125/125 1/120/120
f 1/120/120 31/125/125 33/126/126
f 1/120/120 33/126/126 46/127/127
f 46/127/127 33/126/126 35/128/128
f 7/117/117 13/129/129 5/124/124
f 5/124/124 13/129/129 12/130/130
f 5/124/124 12/130/130 11/131/131
f 59/116/116 19/132/132 18/118/118
f 17/119/119 16/133/133 7/117/117
f 7/117/117 16/133/133 15/134/134
f 7/117/117 15/134/134 14/135/135
f 14/135/135 13/129/129 7/117/117
f 11/131/131 10/136/136 5/124/124
f 5/124/124 10/136/136 31/125/125
f 10/136/136 9/137/137 31/125/125
f 46/127/127 45/138/138 1/120/120
f 1/120/120 45/138/138 44/139/139
f 1/120/120 44/139/139 43/121/121
f 41/123/123 40/140/140 2/115/115
f 2/115/115 40/140/140 39/141/141
f 2/115/115 39/141/141 38/142/142
f 37/143/143 57/144/144 38/142/142
f 38/142/142 57/144/144 2/115/115
f 57/144/144 59/116/116 2/115/115
# 60 vertices
# 144 texture params
# 144 normals
# 120 facets

# 1 groups
