# WaveFront *.obj file (generated by Autodesk ATF)

mtllib lidBig.mtl

g Body1

v -0.105000 -0.048000 0.000000
v -0.105000 0.350000 0.000000
v -0.105000 0.350000 0.040000
v -0.105000 -0.048000 0.040000
v 0.105000 -0.048000 0.000000
v 0.105000 -0.048000 0.040000
v 0.105000 0.350000 0.000000
v 0.105000 0.350000 0.040000
v 0.500000 0.500000 0.000000
v -0.500000 0.500000 0.000000
v -0.500000 0.500000 0.040000
v 0.500000 0.500000 0.040000
v 0.500000 0.050000 0.000000
v 0.500000 0.050000 0.040000
v 0.500000 -0.050000 0.000000
v 0.487059 -0.048296 0.000000
v 0.475000 -0.043301 0.000000
v 0.464645 -0.035355 0.000000
v 0.456699 -0.025000 0.000000
v 0.451704 -0.012941 0.000000
v 0.450000 0.000000 0.000000
v 0.451704 0.012941 0.000000
v 0.456699 0.025000 0.000000
v 0.464645 0.035355 0.000000
v 0.475000 0.043301 0.000000
v 0.487059 0.048296 0.000000
v 0.487059 0.048296 0.040000
v 0.475000 0.043301 0.040000
v 0.464645 0.035355 0.040000
v 0.456699 0.025000 0.040000
v 0.451704 0.012941 0.040000
v 0.450000 0.000000 0.040000
v 0.451704 -0.012941 0.040000
v 0.456699 -0.025000 0.040000
v 0.464645 -0.035355 0.040000
v 0.475000 -0.043301 0.040000
v 0.487059 -0.048296 0.040000
v 0.500000 -0.050000 0.040000
v 0.500000 -0.500000 0.000000
v 0.500000 -0.500000 0.040000
v -0.500000 -0.500000 0.000000
v -0.500000 -0.500000 0.040000
v -0.500000 -0.050000 0.000000
v -0.500000 -0.050000 0.040000
v -0.500000 0.050000 0.000000
v -0.487059 0.048296 0.000000
v -0.475000 0.043301 0.000000
v -0.464645 0.035355 0.000000
v -0.456699 0.025000 0.000000
v -0.451704 0.012941 0.000000
v -0.450000 -0.000000 0.000000
v -0.451704 -0.012941 0.000000
v -0.456699 -0.025000 0.000000
v -0.464645 -0.035355 0.000000
v -0.475000 -0.043301 0.000000
v -0.487059 -0.048296 0.000000
v -0.487059 -0.048296 0.040000
v -0.475000 -0.043301 0.040000
v -0.464645 -0.035355 0.040000
v -0.456699 -0.025000 0.040000
v -0.451704 -0.012941 0.040000
v -0.450000 -0.000000 0.040000
v -0.451704 0.012941 0.040000
v -0.456699 0.025000 0.040000
v -0.464645 0.035355 0.040000
v -0.475000 0.043301 0.040000
v -0.487059 0.048296 0.040000
v -0.500000 0.050000 0.040000
vt 0.000000 0.000000 0.000000
vt 0.398000 0.000000 0.000000
vt 0.000000 0.040000 0.000000
vt 0.398000 0.040000 0.000000
vt 0.000000 0.000000 0.000000
vt 0.210000 0.000000 0.000000
vt 0.000000 0.040000 0.000000
vt 0.210000 0.040000 0.000000
vt 0.000000 0.000000 0.000000
vt 0.398000 0.000000 0.000000
vt 0.000000 0.040000 0.000000
vt 0.398000 0.040000 0.000000
vt 0.000000 0.000000 0.000000
vt 0.210000 0.000000 0.000000
vt 0.000000 0.040000 0.000000
vt 0.210000 0.040000 0.000000
vt -0.000000 0.000000 0.000000
vt 1.000000 0.000000 0.000000
vt -0.000000 0.040000 0.000000
vt 1.000000 0.040000 0.000000
vt 0.000000 0.000000 0.000000
vt 0.450000 0.000000 0.000000
vt 0.000000 0.040000 0.000000
vt 0.450000 0.040000 0.000000
vt 0.040000 0.157080 0.000000
vt 0.000000 0.157080 0.000000
vt 0.040000 0.143990 0.000000
vt -0.000000 0.143990 0.000000
vt 0.040000 0.130900 0.000000
vt 0.000000 0.130900 0.000000
vt 0.040000 0.117810 0.000000
vt -0.000000 0.117810 0.000000
vt 0.040000 0.104720 0.000000
vt 0.000000 0.104720 0.000000
vt 0.040000 0.091630 0.000000
vt 0.000000 0.091630 0.000000
vt 0.040000 0.078540 0.000000
vt 0.000000 0.078540 0.000000
vt 0.040000 0.065450 0.000000
vt 0.000000 0.065450 0.000000
vt 0.040000 0.052360 0.000000
vt 0.000000 0.052360 0.000000
vt 0.040000 0.039270 0.000000
vt 0.000000 0.039270 0.000000
vt 0.040000 0.026180 0.000000
vt 0.000000 0.026180 0.000000
vt 0.040000 0.013090 0.000000
vt 0.000000 0.013090 0.000000
vt 0.040000 0.000000 0.000000
vt 0.000000 0.000000 0.000000
vt 0.000000 0.000000 0.000000
vt 0.450000 0.000000 0.000000
vt 0.000000 0.040000 0.000000
vt 0.450000 0.040000 0.000000
vt 0.000000 0.000000 0.000000
vt 1.000000 0.000000 0.000000
vt 0.000000 0.040000 0.000000
vt 1.000000 0.040000 0.000000
vt 0.000000 0.000000 0.000000
vt 0.450000 0.000000 0.000000
vt -0.000000 0.040000 0.000000
vt 0.450000 0.040000 0.000000
vt 0.040000 -0.157080 0.000000
vt 0.000000 -0.157080 0.000000
vt 0.040000 -0.170170 0.000000
vt 0.000000 -0.170170 0.000000
vt 0.040000 -0.183260 0.000000
vt 0.000000 -0.183260 0.000000
vt 0.040000 -0.196350 0.000000
vt 0.000000 -0.196350 0.000000
vt 0.040000 -0.209440 0.000000
vt 0.000000 -0.209440 0.000000
vt 0.040000 -0.222529 0.000000
vt 0.000000 -0.222529 0.000000
vt 0.040000 -0.235619 0.000000
vt 0.000000 -0.235619 0.000000
vt 0.040000 -0.248709 0.000000
vt 0.000000 -0.248709 0.000000
vt 0.040000 -0.261799 0.000000
vt 0.000000 -0.261799 0.000000
vt 0.040000 -0.274889 0.000000
vt 0.000000 -0.274889 0.000000
vt 0.040000 -0.287979 0.000000
vt -0.000000 -0.287979 0.000000
vt 0.040000 -0.301069 0.000000
vt 0.000000 -0.301069 0.000000
vt 0.040000 -0.314159 0.000000
vt 0.000000 -0.314159 0.000000
vt 0.000000 0.000000 0.000000
vt 0.450000 0.000000 0.000000
vt 0.000000 0.040000 0.000000
vt 0.450000 0.040000 0.000000
vt 0.105000 0.350000 0.000000
vt -0.500000 0.500000 0.000000
vt -0.105000 0.350000 0.000000
vt -0.475000 0.043301 0.000000
vt -0.464645 0.035355 0.000000
vt 0.105000 -0.048000 0.000000
vt 0.456699 0.025000 0.000000
vt 0.464645 0.035355 0.000000
vt 0.475000 0.043301 0.000000
vt -0.105000 -0.048000 0.000000
vt 0.500000 -0.500000 0.000000
vt 0.475000 -0.043301 0.000000
vt 0.464645 -0.035355 0.000000
vt -0.456699 0.025000 0.000000
vt -0.451704 0.012941 0.000000
vt -0.450000 -0.000000 0.000000
vt -0.500000 0.050000 0.000000
vt -0.487059 0.048296 0.000000
vt -0.451704 -0.012941 0.000000
vt -0.456699 -0.025000 0.000000
vt -0.464645 -0.035355 0.000000
vt -0.475000 -0.043301 0.000000
vt -0.500000 -0.500000 0.000000
vt -0.487059 -0.048296 0.000000
vt -0.500000 -0.050000 0.000000
vt 0.500000 -0.050000 0.000000
vt 0.487059 -0.048296 0.000000
vt 0.456699 -0.025000 0.000000
vt 0.451704 -0.012941 0.000000
vt 0.450000 0.000000 0.000000
vt 0.451704 0.012941 0.000000
vt 0.500000 0.500000 0.000000
vt 0.487059 0.048296 0.000000
vt 0.500000 0.050000 0.000000
vt 0.105000 0.350000 0.000000
vt -0.500000 0.500000 0.000000
vt -0.105000 0.350000 0.000000
vt -0.475000 0.043301 0.000000
vt -0.464645 0.035355 0.000000
vt 0.105000 -0.048000 0.000000
vt 0.456699 0.025000 0.000000
vt 0.464645 0.035355 0.000000
vt 0.475000 0.043301 0.000000
vt -0.105000 -0.048000 0.000000
vt 0.500000 -0.500000 0.000000
vt 0.475000 -0.043301 0.000000
vt 0.464645 -0.035355 0.000000
vt -0.456699 0.025000 0.000000
vt -0.451704 0.012941 0.000000
vt -0.450000 0.000000 0.000000
vt 0.500000 0.050000 0.000000
vt 0.500000 0.500000 0.000000
vt 0.487059 0.048296 0.000000
vt -0.500000 0.050000 0.000000
vt -0.487059 0.048296 0.000000
vt -0.451704 -0.012941 0.000000
vt -0.456699 -0.025000 0.000000
vt -0.464645 -0.035355 0.000000
vt -0.475000 -0.043301 0.000000
vt -0.500000 -0.500000 0.000000
vt -0.487059 -0.048296 0.000000
vt -0.500000 -0.050000 0.000000
vt 0.500000 -0.050000 0.000000
vt 0.487059 -0.048296 0.000000
vt 0.456699 -0.025000 0.000000
vt 0.451704 -0.012941 0.000000
vt 0.450000 -0.000000 0.000000
vt 0.451704 0.012941 0.000000
vn 1.000000 0.000000 -0.000000
vn 1.000000 0.000000 -0.000000
vn 1.000000 0.000000 -0.000000
vn 1.000000 0.000000 -0.000000
vn 0.000000 1.000000 0.000000
vn 0.000000 1.000000 0.000000
vn 0.000000 1.000000 0.000000
vn 0.000000 1.000000 0.000000
vn -1.000000 0.000000 0.000000
vn -1.000000 0.000000 0.000000
vn -1.000000 0.000000 0.000000
vn -1.000000 0.000000 0.000000
vn 0.000000 -1.000000 0.000000
vn 0.000000 -1.000000 0.000000
vn 0.000000 -1.000000 0.000000
vn 0.000000 -1.000000 0.000000
vn 0.000000 1.000000 0.000000
vn 0.000000 1.000000 0.000000
vn 0.000000 1.000000 0.000000
vn 0.000000 1.000000 0.000000
vn 1.000000 0.000000 -0.000000
vn 1.000000 0.000000 -0.000000
vn 1.000000 0.000000 -0.000000
vn 1.000000 0.000000 -0.000000
vn 0.000000 1.000000 -0.000000
vn 0.000000 1.000000 -0.000000
vn 0.258819 0.965926 -0.000000
vn 0.258819 0.965926 -0.000000
vn 0.500000 0.866025 -0.000000
vn 0.500000 0.866025 -0.000000
vn 0.707107 0.707107 -0.000000
vn 0.707107 0.707107 -0.000000
vn 0.866025 0.500000 -0.000000
vn 0.866025 0.500000 -0.000000
vn 0.965926 0.258819 -0.000000
vn 0.965926 0.258819 -0.000000
vn 1.000000 -0.000000 0.000000
vn 1.000000 -0.000000 0.000000
vn 0.965926 -0.258819 0.000000
vn 0.965926 -0.258819 0.000000
vn 0.866025 -0.500000 0.000000
vn 0.866025 -0.500000 0.000000
vn 0.707107 -0.707107 0.000000
vn 0.707107 -0.707107 0.000000
vn 0.500000 -0.866025 0.000000
vn 0.500000 -0.866025 0.000000
vn 0.258819 -0.965926 0.000000
vn 0.258819 -0.965926 0.000000
vn 0.000000 -1.000000 0.000000
vn 0.000000 -1.000000 0.000000
vn 1.000000 0.000000 -0.000000
vn 1.000000 0.000000 -0.000000
vn 1.000000 0.000000 -0.000000
vn 1.000000 0.000000 -0.000000
vn 0.000000 -1.000000 0.000000
vn 0.000000 -1.000000 0.000000
vn 0.000000 -1.000000 0.000000
vn 0.000000 -1.000000 0.000000
vn -1.000000 0.000000 0.000000
vn -1.000000 0.000000 0.000000
vn -1.000000 0.000000 0.000000
vn -1.000000 0.000000 0.000000
vn 0.000000 -1.000000 0.000000
vn 0.000000 -1.000000 0.000000
vn -0.258819 -0.965926 0.000000
vn -0.258819 -0.965926 0.000000
vn -0.500000 -0.866025 0.000000
vn -0.500000 -0.866025 0.000000
vn -0.707107 -0.707107 0.000000
vn -0.707107 -0.707107 0.000000
vn -0.866025 -0.500000 0.000000
vn -0.866025 -0.500000 0.000000
vn -0.965926 -0.258819 0.000000
vn -0.965926 -0.258819 0.000000
vn -1.000000 -0.000000 0.000000
vn -1.000000 -0.000000 0.000000
vn -0.965926 0.258819 0.000000
vn -0.965926 0.258819 0.000000
vn -0.866025 0.500000 0.000000
vn -0.866025 0.500000 0.000000
vn -0.707107 0.707107 0.000000
vn -0.707107 0.707107 0.000000
vn -0.500000 0.866025 0.000000
vn -0.500000 0.866025 0.000000
vn -0.258819 0.965926 0.000000
vn -0.258819 0.965926 0.000000
vn -0.000000 1.000000 0.000000
vn -0.000000 1.000000 0.000000
vn -1.000000 0.000000 0.000000
vn -1.000000 0.000000 0.000000
vn -1.000000 0.000000 0.000000
vn -1.000000 0.000000 0.000000
vn 0.000000 0.000000 1.000000
vn 0.000000 0.000000 1.000000
vn 0.000000 0.000000 1.000000
vn 0.000000 0.000000 1.000000
vn 0.000000 0.000000 1.000000
vn 0.000000 0.000000 1.000000
vn 0.000000 0.000000 1.000000
vn 0.000000 0.000000 1.000000
vn 0.000000 0.000000 1.000000
vn 0.000000 0.000000 1.000000
vn 0.000000 0.000000 1.000000
vn 0.000000 0.000000 1.000000
vn 0.000000 0.000000 1.000000
vn 0.000000 0.000000 1.000000
vn 0.000000 0.000000 1.000000
vn 0.000000 0.000000 1.000000
vn 0.000000 0.000000 1.000000
vn 0.000000 0.000000 1.000000
vn 0.000000 0.000000 1.000000
vn 0.000000 0.000000 1.000000
vn 0.000000 0.000000 1.000000
vn 0.000000 0.000000 1.000000
vn 0.000000 0.000000 1.000000
vn 0.000000 0.000000 1.000000
vn 0.000000 0.000000 1.000000
vn 0.000000 0.000000 1.000000
vn 0.000000 0.000000 1.000000
vn 0.000000 0.000000 1.000000
vn 0.000000 0.000000 1.000000
vn 0.000000 0.000000 1.000000
vn 0.000000 0.000000 1.000000
vn 0.000000 0.000000 1.000000
vn 0.000000 0.000000 1.000000
vn 0.000000 0.000000 1.000000
vn 0.000000 -0.000000 -1.000000
vn 0.000000 -0.000000 -1.000000
vn 0.000000 -0.000000 -1.000000
vn 0.000000 -0.000000 -1.000000
vn 0.000000 -0.000000 -1.000000
vn 0.000000 -0.000000 -1.000000
vn 0.000000 -0.000000 -1.000000
vn 0.000000 -0.000000 -1.000000
vn 0.000000 -0.000000 -1.000000
vn 0.000000 -0.000000 -1.000000
vn 0.000000 -0.000000 -1.000000
vn 0.000000 -0.000000 -1.000000
vn 0.000000 -0.000000 -1.000000
vn 0.000000 -0.000000 -1.000000
vn 0.000000 -0.000000 -1.000000
vn 0.000000 -0.000000 -1.000000
vn 0.000000 -0.000000 -1.000000
vn 0.000000 -0.000000 -1.000000
vn 0.000000 -0.000000 -1.000000
vn 0.000000 -0.000000 -1.000000
vn 0.000000 -0.000000 -1.000000
vn 0.000000 -0.000000 -1.000000
vn 0.000000 -0.000000 -1.000000
vn 0.000000 -0.000000 -1.000000
vn 0.000000 -0.000000 -1.000000
vn 0.000000 -0.000000 -1.000000
vn 0.000000 -0.000000 -1.000000
vn 0.000000 -0.000000 -1.000000
vn 0.000000 -0.000000 -1.000000
vn 0.000000 -0.000000 -1.000000
vn 0.000000 -0.000000 -1.000000
vn 0.000000 -0.000000 -1.000000
vn 0.000000 -0.000000 -1.000000
vn 0.000000 -0.000000 -1.000000
usemtl FR4
f 1/1/1 2/2/2 4/3/3
f 4/3/3 2/2/2 3/4/4
f 5/5/5 1/6/6 6/7/7
f 6/7/7 1/6/6 4/8/8
f 7/9/9 5/10/10 8/11/11
f 8/11/11 5/10/10 6/12/12
f 2/13/13 7/14/14 3/15/15
f 3/15/15 7/14/14 8/16/16
f 9/17/17 10/18/18 12/19/19
f 12/19/19 10/18/18 11/20/20
f 13/21/21 9/22/22 14/23/23
f 14/23/23 9/22/22 12/24/24
f 38/25/25 15/26/26 37/27/27
f 37/27/27 15/26/26 16/28/28
f 37/27/27 16/28/28 36/29/29
f 36/29/29 16/28/28 17/30/30
f 36/29/29 17/30/30 35/31/31
f 35/31/31 17/30/30 18/32/32
f 35/31/31 18/32/32 34/33/33
f 34/33/33 18/32/32 19/34/34
f 34/33/33 19/34/34 33/35/35
f 33/35/35 19/34/34 20/36/36
f 33/35/35 20/36/36 32/37/37
f 32/37/37 20/36/36 21/38/38
f 32/37/37 21/38/38 31/39/39
f 31/39/39 21/38/38 22/40/40
f 31/39/39 22/40/40 30/41/41
f 30/41/41 22/40/40 23/42/42
f 30/41/41 23/42/42 29/43/43
f 29/43/43 23/42/42 24/44/44
f 29/43/43 24/44/44 28/45/45
f 28/45/45 24/44/44 25/46/46
f 28/45/45 25/46/46 27/47/47
f 27/47/47 25/46/46 26/48/48
f 27/47/47 26/48/48 14/49/49
f 14/49/49 26/48/48 13/50/50
f 39/51/51 15/52/52 40/53/53
f 40/53/53 15/52/52 38/54/54
f 41/55/55 39/56/56 42/57/57
f 42/57/57 39/56/56 40/58/58
f 43/59/59 41/60/60 44/61/61
f 44/61/61 41/60/60 42/62/62
f 68/63/63 45/64/64 67/65/65
f 67/65/65 45/64/64 46/66/66
f 67/65/65 46/66/66 66/67/67
f 66/67/67 46/66/66 47/68/68
f 66/67/67 47/68/68 65/69/69
f 65/69/69 47/68/68 48/70/70
f 65/69/69 48/70/70 64/71/71
f 64/71/71 48/70/70 49/72/72
f 64/71/71 49/72/72 63/73/73
f 63/73/73 49/72/72 50/74/74
f 63/73/73 50/74/74 62/75/75
f 62/75/75 50/74/74 51/76/76
f 62/75/75 51/76/76 61/77/77
f 61/77/77 51/76/76 52/78/78
f 61/77/77 52/78/78 60/79/79
f 60/79/79 52/78/78 53/80/80
f 60/79/79 53/80/80 59/81/81
f 59/81/81 53/80/80 54/82/82
f 59/81/81 54/82/82 58/83/83
f 58/83/83 54/82/82 55/84/84
f 58/83/83 55/84/84 57/85/85
f 57/85/85 55/84/84 56/86/86
f 57/85/85 56/86/86 44/87/87
f 44/87/87 56/86/86 43/88/88
f 10/89/89 45/90/90 11/91/91
f 11/91/91 45/90/90 68/92/92
f 8/93/93 11/94/94 3/95/95
f 3/95/95 11/94/94 66/96/96
f 3/95/95 66/96/96 65/97/97
f 6/98/98 30/99/99 8/93/93
f 8/93/93 30/99/99 29/100/100
f 8/93/93 29/100/100 28/101/101
f 4/102/102 40/103/103 6/98/98
f 6/98/98 40/103/103 36/104/104
f 6/98/98 36/104/104 35/105/105
f 3/95/95 64/106/106 4/102/102
f 4/102/102 64/106/106 63/107/107
f 4/102/102 63/107/107 62/108/108
f 68/109/109 67/110/110 11/94/94
f 11/94/94 67/110/110 66/96/96
f 65/97/97 64/106/106 3/95/95
f 62/108/108 61/111/111 4/102/102
f 4/102/102 61/111/111 60/112/112
f 4/102/102 60/112/112 59/113/113
f 59/113/113 58/114/114 4/102/102
f 4/102/102 58/114/114 42/115/115
f 4/102/102 42/115/115 40/103/103
f 58/114/114 57/116/116 42/115/115
f 42/115/115 57/116/116 44/117/117
f 38/118/118 37/119/119 40/103/103
f 40/103/103 37/119/119 36/104/104
f 35/105/105 34/120/120 6/98/98
f 6/98/98 34/120/120 33/121/121
f 6/98/98 33/121/121 32/122/122
f 32/122/122 31/123/123 6/98/98
f 6/98/98 31/123/123 30/99/99
f 8/93/93 28/101/101 12/124/124
f 12/124/124 28/101/101 27/125/125
f 12/124/124 27/125/125 14/126/126
f 12/124/124 11/94/94 8/93/93
f 2/127/127 9/128/128 7/129/129
f 7/129/129 9/128/128 25/130/130
f 7/129/129 25/130/130 24/131/131
f 1/132/132 49/133/133 2/127/127
f 2/127/127 49/133/133 48/134/134
f 2/127/127 48/134/134 47/135/135
f 5/136/136 41/137/137 1/132/132
f 1/132/132 41/137/137 55/138/138
f 1/132/132 55/138/138 54/139/139
f 7/129/129 23/140/140 5/136/136
f 5/136/136 23/140/140 22/141/141
f 5/136/136 22/141/141 21/142/142
f 45/143/143 10/144/144 46/145/145
f 46/145/145 10/144/144 47/135/135
f 47/135/135 10/144/144 2/127/127
f 10/144/144 9/128/128 2/127/127
f 13/146/146 26/147/147 9/128/128
f 9/128/128 26/147/147 25/130/130
f 24/131/131 23/140/140 7/129/129
f 21/142/142 20/148/148 5/136/136
f 5/136/136 20/148/148 19/149/149
f 5/136/136 19/149/149 18/150/150
f 18/150/150 17/151/151 5/136/136
f 5/136/136 17/151/151 39/152/152
f 5/136/136 39/152/152 41/137/137
f 17/151/151 16/153/153 39/152/152
f 39/152/152 16/153/153 15/154/154
f 43/155/155 56/156/156 41/137/137
f 41/137/137 56/156/156 55/138/138
f 54/139/139 53/157/157 1/132/132
f 1/132/132 53/157/157 52/158/158
f 1/132/132 52/158/158 51/159/159
f 51/159/159 50/160/160 1/132/132
f 1/132/132 50/160/160 49/133/133
# 68 vertices
# 160 texture params
# 160 normals
# 136 facets

# 1 groups
