# WaveFront *.obj file (generated by Autodesk ATF)

mtllib lid little.mtl

g Body1

v -0.077000 -0.043000 0.000000
v -0.077000 0.156000 0.000000
v -0.077000 0.156000 0.040000
v -0.077000 -0.043000 0.040000
v -0.077000 -0.045000 0.000000
v -0.077000 -0.045000 0.040000
v 0.077000 -0.045000 0.000000
v 0.077000 -0.045000 0.040000
v 0.077000 0.156000 0.000000
v 0.077000 0.156000 0.040000
v -0.500000 0.050000 0.000000
v -0.487059 0.048296 0.000000
v -0.475000 0.043301 0.000000
v -0.464645 0.035355 0.000000
v -0.456699 0.025000 0.000000
v -0.451704 0.012941 0.000000
v -0.450000 -0.000000 0.000000
v -0.451704 -0.012941 0.000000
v -0.456699 -0.025000 0.000000
v -0.464645 -0.035355 0.000000
v -0.475000 -0.043301 0.000000
v -0.487059 -0.048296 0.000000
v -0.500000 -0.050000 0.000000
v -0.500000 -0.050000 0.040000
v -0.487059 -0.048296 0.040000
v -0.475000 -0.043301 0.040000
v -0.464645 -0.035355 0.040000
v -0.456699 -0.025000 0.040000
v -0.451704 -0.012941 0.040000
v -0.450000 -0.000000 0.040000
v -0.451704 0.012941 0.040000
v -0.456699 0.025000 0.040000
v -0.464645 0.035355 0.040000
v -0.475000 0.043301 0.040000
v -0.487059 0.048296 0.040000
v -0.500000 0.050000 0.040000
v -0.500000 0.500000 0.000000
v -0.500000 0.500000 0.040000
v 0.500000 0.500000 0.000000
v 0.500000 0.500000 0.040000
v 0.500000 0.050000 0.000000
v 0.500000 0.050000 0.040000
v 0.500000 -0.050000 0.000000
v 0.487059 -0.048296 0.000000
v 0.475000 -0.043301 0.000000
v 0.464645 -0.035355 0.000000
v 0.456699 -0.025000 0.000000
v 0.451704 -0.012941 0.000000
v 0.450000 0.000000 0.000000
v 0.451704 0.012941 0.000000
v 0.456699 0.025000 0.000000
v 0.464645 0.035355 0.000000
v 0.475000 0.043301 0.000000
v 0.487059 0.048296 0.000000
v 0.487059 0.048296 0.040000
v 0.475000 0.043301 0.040000
v 0.464645 0.035355 0.040000
v 0.456699 0.025000 0.040000
v 0.451704 0.012941 0.040000
v 0.450000 0.000000 0.040000
v 0.451704 -0.012941 0.040000
v 0.456699 -0.025000 0.040000
v 0.464645 -0.035355 0.040000
v 0.475000 -0.043301 0.040000
v 0.487059 -0.048296 0.040000
v 0.500000 -0.050000 0.040000
v 0.500000 -0.500000 0.000000
v 0.500000 -0.500000 0.040000
v -0.500000 -0.500000 0.000000
v -0.500000 -0.500000 0.040000
vt 0.000000 0.000000 0.000000
vt 0.199000 0.000000 0.000000
vt 0.000000 0.040000 0.000000
vt 0.199000 0.040000 0.000000
vt 0.000000 0.000000 0.000000
vt 0.002000 0.000000 0.000000
vt 0.000000 0.040000 0.000000
vt 0.002000 0.040000 0.000000
vt 0.000000 0.000000 0.000000
vt 0.154000 0.000000 0.000000
vt 0.000000 0.040000 0.000000
vt 0.154000 0.040000 0.000000
vt 0.000000 0.000000 0.000000
vt 0.201000 0.000000 0.000000
vt 0.000000 0.040000 0.000000
vt 0.201000 0.040000 0.000000
vt 0.000000 0.000000 0.000000
vt 0.154000 0.000000 0.000000
vt 0.000000 0.040000 0.000000
vt 0.154000 0.040000 0.000000
vt 0.040000 -0.157080 0.000000
vt 0.000000 -0.157080 0.000000
vt 0.040000 -0.170170 0.000000
vt 0.000000 -0.170170 0.000000
vt 0.040000 -0.183260 0.000000
vt 0.000000 -0.183260 0.000000
vt 0.040000 -0.196350 0.000000
vt 0.000000 -0.196350 0.000000
vt 0.040000 -0.209440 0.000000
vt 0.000000 -0.209440 0.000000
vt 0.040000 -0.222529 0.000000
vt 0.000000 -0.222529 0.000000
vt 0.040000 -0.235619 0.000000
vt 0.000000 -0.235619 0.000000
vt 0.040000 -0.248709 0.000000
vt 0.000000 -0.248709 0.000000
vt 0.040000 -0.261799 0.000000
vt 0.000000 -0.261799 0.000000
vt 0.040000 -0.274889 0.000000
vt 0.000000 -0.274889 0.000000
vt 0.040000 -0.287979 0.000000
vt -0.000000 -0.287979 0.000000
vt 0.040000 -0.301069 0.000000
vt 0.000000 -0.301069 0.000000
vt 0.040000 -0.314159 0.000000
vt 0.000000 -0.314159 0.000000
vt 0.000000 0.000000 0.000000
vt 0.450000 0.000000 0.000000
vt 0.000000 0.040000 0.000000
vt 0.450000 0.040000 0.000000
vt -0.000000 0.000000 0.000000
vt 1.000000 0.000000 0.000000
vt -0.000000 0.040000 0.000000
vt 1.000000 0.040000 0.000000
vt 0.000000 0.000000 0.000000
vt 0.450000 0.000000 0.000000
vt 0.000000 0.040000 0.000000
vt 0.450000 0.040000 0.000000
vt 0.040000 0.157080 0.000000
vt 0.000000 0.157080 0.000000
vt 0.040000 0.143990 0.000000
vt -0.000000 0.143990 0.000000
vt 0.040000 0.130900 0.000000
vt 0.000000 0.130900 0.000000
vt 0.040000 0.117810 0.000000
vt -0.000000 0.117810 0.000000
vt 0.040000 0.104720 0.000000
vt 0.000000 0.104720 0.000000
vt 0.040000 0.091630 0.000000
vt 0.000000 0.091630 0.000000
vt 0.040000 0.078540 0.000000
vt 0.000000 0.078540 0.000000
vt 0.040000 0.065450 0.000000
vt 0.000000 0.065450 0.000000
vt 0.040000 0.052360 0.000000
vt 0.000000 0.052360 0.000000
vt 0.040000 0.039270 0.000000
vt 0.000000 0.039270 0.000000
vt 0.040000 0.026180 0.000000
vt 0.000000 0.026180 0.000000
vt 0.040000 0.013090 0.000000
vt 0.000000 0.013090 0.000000
vt 0.040000 0.000000 0.000000
vt 0.000000 0.000000 0.000000
vt 0.000000 0.000000 0.000000
vt 0.450000 0.000000 0.000000
vt 0.000000 0.040000 0.000000
vt 0.450000 0.040000 0.000000
vt 0.000000 0.000000 0.000000
vt 1.000000 0.000000 0.000000
vt 0.000000 0.040000 0.000000
vt 1.000000 0.040000 0.000000
vt 0.000000 0.000000 0.000000
vt 0.450000 0.000000 0.000000
vt -0.000000 0.040000 0.000000
vt 0.450000 0.040000 0.000000
vt 0.077000 0.156000 0.000000
vt -0.500000 0.500000 0.000000
vt -0.077000 0.156000 0.000000
vt -0.475000 0.043301 0.000000
vt -0.464645 0.035355 0.000000
vt 0.077000 -0.045000 0.000000
vt 0.451704 0.012941 0.000000
vt 0.456699 0.025000 0.000000
vt 0.464645 0.035355 0.000000
vt -0.077000 -0.045000 0.000000
vt -0.500000 -0.500000 0.000000
vt 0.500000 -0.500000 0.000000
vt 0.464645 -0.035355 0.000000
vt 0.475000 -0.043301 0.000000
vt 0.487059 -0.048296 0.000000
vt 0.500000 -0.050000 0.000000
vt -0.077000 -0.043000 0.000000
vt -0.451704 -0.012941 0.000000
vt -0.456699 -0.025000 0.000000
vt -0.464645 -0.035355 0.000000
vt -0.451704 0.012941 0.000000
vt -0.450000 -0.000000 0.000000
vt -0.500000 -0.050000 0.000000
vt -0.487059 -0.048296 0.000000
vt -0.475000 -0.043301 0.000000
vt 0.456699 -0.025000 0.000000
vt 0.451704 -0.012941 0.000000
vt 0.450000 0.000000 0.000000
vt 0.475000 0.043301 0.000000
vt 0.500000 0.500000 0.000000
vt 0.487059 0.048296 0.000000
vt 0.500000 0.050000 0.000000
vt -0.500000 0.050000 0.000000
vt -0.487059 0.048296 0.000000
vt -0.456699 0.025000 0.000000
vt 0.077000 0.156000 0.000000
vt 0.500000 0.500000 0.000000
vt -0.077000 0.156000 0.000000
vt -0.500000 0.500000 0.000000
vt -0.475000 0.043301 0.000000
vt -0.487059 0.048296 0.000000
vt -0.500000 0.050000 0.000000
vt 0.077000 -0.043000 0.000000
vt 0.451704 0.012941 0.000000
vt 0.456699 0.025000 0.000000
vt 0.464645 0.035355 0.000000
vt 0.077000 -0.045000 0.000000
vt 0.451704 -0.012941 0.000000
vt 0.450000 -0.000000 0.000000
vt -0.077000 -0.045000 0.000000
vt 0.500000 -0.500000 0.000000
vt 0.464645 -0.035355 0.000000
vt 0.456699 -0.025000 0.000000
vt -0.451704 0.012941 0.000000
vt -0.450000 0.000000 0.000000
vt -0.451704 -0.012941 0.000000
vt 0.500000 -0.050000 0.000000
vt 0.487059 -0.048296 0.000000
vt 0.475000 -0.043301 0.000000
vt 0.475000 0.043301 0.000000
vt 0.487059 0.048296 0.000000
vt 0.500000 0.050000 0.000000
vt -0.464645 0.035355 0.000000
vt -0.456699 0.025000 0.000000
vt -0.456699 -0.025000 0.000000
vt -0.464645 -0.035355 0.000000
vt -0.500000 -0.500000 0.000000
vt -0.475000 -0.043301 0.000000
vt -0.487059 -0.048296 0.000000
vt -0.500000 -0.050000 0.000000
vn 1.000000 0.000000 -0.000000
vn 1.000000 0.000000 -0.000000
vn 1.000000 0.000000 -0.000000
vn 1.000000 0.000000 -0.000000
vn 1.000000 -0.000002 0.000000
vn 1.000000 -0.000002 0.000000
vn 1.000000 -0.000002 0.000000
vn 1.000000 -0.000002 0.000000
vn 0.000000 1.000000 -0.000000
vn 0.000000 1.000000 -0.000000
vn 0.000000 1.000000 -0.000000
vn 0.000000 1.000000 -0.000000
vn -1.000000 0.000000 0.000000
vn -1.000000 0.000000 0.000000
vn -1.000000 0.000000 0.000000
vn -1.000000 0.000000 0.000000
vn 0.000000 -1.000000 0.000000
vn 0.000000 -1.000000 0.000000
vn 0.000000 -1.000000 0.000000
vn 0.000000 -1.000000 0.000000
vn 0.000000 -1.000000 0.000000
vn 0.000000 -1.000000 0.000000
vn -0.258819 -0.965926 0.000000
vn -0.258819 -0.965926 0.000000
vn -0.500000 -0.866025 0.000000
vn -0.500000 -0.866025 0.000000
vn -0.707107 -0.707107 0.000000
vn -0.707107 -0.707107 0.000000
vn -0.866025 -0.500000 0.000000
vn -0.866025 -0.500000 0.000000
vn -0.965926 -0.258819 0.000000
vn -0.965926 -0.258819 0.000000
vn -1.000000 -0.000000 0.000000
vn -1.000000 -0.000000 0.000000
vn -0.965926 0.258819 0.000000
vn -0.965926 0.258819 0.000000
vn -0.866025 0.500000 0.000000
vn -0.866025 0.500000 0.000000
vn -0.707107 0.707107 0.000000
vn -0.707107 0.707107 0.000000
vn -0.500000 0.866025 0.000000
vn -0.500000 0.866025 0.000000
vn -0.258819 0.965926 0.000000
vn -0.258819 0.965926 0.000000
vn -0.000000 1.000000 0.000000
vn -0.000000 1.000000 0.000000
vn -1.000000 0.000000 0.000000
vn -1.000000 0.000000 0.000000
vn -1.000000 0.000000 0.000000
vn -1.000000 0.000000 0.000000
vn 0.000000 1.000000 0.000000
vn 0.000000 1.000000 0.000000
vn 0.000000 1.000000 0.000000
vn 0.000000 1.000000 0.000000
vn 1.000000 0.000000 -0.000000
vn 1.000000 0.000000 -0.000000
vn 1.000000 0.000000 -0.000000
vn 1.000000 0.000000 -0.000000
vn 0.000000 1.000000 -0.000000
vn 0.000000 1.000000 -0.000000
vn 0.258819 0.965926 -0.000000
vn 0.258819 0.965926 -0.000000
vn 0.500000 0.866025 -0.000000
vn 0.500000 0.866025 -0.000000
vn 0.707107 0.707107 -0.000000
vn 0.707107 0.707107 -0.000000
vn 0.866025 0.500000 -0.000000
vn 0.866025 0.500000 -0.000000
vn 0.965926 0.258819 -0.000000
vn 0.965926 0.258819 -0.000000
vn 1.000000 -0.000000 0.000000
vn 1.000000 -0.000000 0.000000
vn 0.965926 -0.258819 0.000000
vn 0.965926 -0.258819 0.000000
vn 0.866025 -0.500000 0.000000
vn 0.866025 -0.500000 0.000000
vn 0.707107 -0.707107 0.000000
vn 0.707107 -0.707107 0.000000
vn 0.500000 -0.866025 0.000000
vn 0.500000 -0.866025 0.000000
vn 0.258819 -0.965926 0.000000
vn 0.258819 -0.965926 0.000000
vn 0.000000 -1.000000 0.000000
vn 0.000000 -1.000000 0.000000
vn 1.000000 0.000000 -0.000000
vn 1.000000 0.000000 -0.000000
vn 1.000000 0.000000 -0.000000
vn 1.000000 0.000000 -0.000000
vn 0.000000 -1.000000 0.000000
vn 0.000000 -1.000000 0.000000
vn 0.000000 -1.000000 0.000000
vn 0.000000 -1.000000 0.000000
vn -1.000000 0.000000 0.000000
vn -1.000000 0.000000 0.000000
vn -1.000000 0.000000 0.000000
vn -1.000000 0.000000 0.000000
vn 0.000000 0.000000 1.000000
vn 0.000000 0.000000 1.000000
vn 0.000000 0.000000 1.000000
vn 0.000000 0.000000 1.000000
vn 0.000000 0.000000 1.000000
vn 0.000000 0.000000 1.000000
vn 0.000000 0.000000 1.000000
vn 0.000000 0.000000 1.000000
vn 0.000000 0.000000 1.000000
vn 0.000000 0.000000 1.000000
vn 0.000000 0.000000 1.000000
vn 0.000000 0.000000 1.000000
vn 0.000000 0.000000 1.000000
vn 0.000000 0.000000 1.000000
vn 0.000000 0.000000 1.000000
vn 0.000000 0.000000 1.000000
vn 0.000000 0.000000 1.000000
vn 0.000000 0.000000 1.000000
vn 0.000000 0.000000 1.000000
vn 0.000000 0.000000 1.000000
vn 0.000000 0.000000 1.000000
vn 0.000000 0.000000 1.000000
vn 0.000000 0.000000 1.000000
vn 0.000000 0.000000 1.000000
vn 0.000000 0.000000 1.000000
vn 0.000000 0.000000 1.000000
vn 0.000000 0.000000 1.000000
vn 0.000000 0.000000 1.000000
vn 0.000000 0.000000 1.000000
vn 0.000000 0.000000 1.000000
vn 0.000000 0.000000 1.000000
vn 0.000000 0.000000 1.000000
vn 0.000000 0.000000 1.000000
vn 0.000000 0.000000 1.000000
vn 0.000000 0.000000 1.000000
vn 0.000000 -0.000000 -1.000000
vn 0.000000 -0.000000 -1.000000
vn 0.000000 -0.000000 -1.000000
vn 0.000000 -0.000000 -1.000000
vn 0.000000 -0.000000 -1.000000
vn 0.000000 -0.000000 -1.000000
vn 0.000000 -0.000000 -1.000000
vn 0.000000 -0.000000 -1.000000
vn 0.000000 -0.000000 -1.000000
vn 0.000000 -0.000000 -1.000000
vn 0.000000 -0.000000 -1.000000
vn 0.000000 -0.000000 -1.000000
vn 0.000000 -0.000000 -1.000000
vn 0.000000 -0.000000 -1.000000
vn 0.000000 -0.000000 -1.000000
vn 0.000000 -0.000000 -1.000000
vn 0.000000 -0.000000 -1.000000
vn 0.000000 -0.000000 -1.000000
vn 0.000000 -0.000000 -1.000000
vn 0.000000 -0.000000 -1.000000
vn 0.000000 -0.000000 -1.000000
vn 0.000000 -0.000000 -1.000000
vn 0.000000 -0.000000 -1.000000
vn 0.000000 -0.000000 -1.000000
vn 0.000000 -0.000000 -1.000000
vn 0.000000 -0.000000 -1.000000
vn 0.000000 -0.000000 -1.000000
vn 0.000000 -0.000000 -1.000000
vn 0.000000 -0.000000 -1.000000
vn 0.000000 -0.000000 -1.000000
vn 0.000000 -0.000000 -1.000000
vn 0.000000 -0.000000 -1.000000
vn 0.000000 -0.000000 -1.000000
vn 0.000000 -0.000000 -1.000000
vn 0.000000 -0.000000 -1.000000
usemtl FR4
f 1/1/1 2/2/2 4/3/3
f 4/3/3 2/2/2 3/4/4
f 5/5/5 1/6/6 6/7/7
f 6/7/7 1/6/6 4/8/8
f 7/9/9 5/10/10 8/11/11
f 8/11/11 5/10/10 6/12/12
f 9/13/13 7/14/14 10/15/15
f 10/15/15 7/14/14 8/16/16
f 2/17/17 9/18/18 3/19/19
f 3/19/19 9/18/18 10/20/20
f 36/21/21 11/22/22 35/23/23
f 35/23/23 11/22/22 12/24/24
f 35/23/23 12/24/24 34/25/25
f 34/25/25 12/24/24 13/26/26
f 34/25/25 13/26/26 33/27/27
f 33/27/27 13/26/26 14/28/28
f 33/27/27 14/28/28 32/29/29
f 32/29/29 14/28/28 15/30/30
f 32/29/29 15/30/30 31/31/31
f 31/31/31 15/30/30 16/32/32
f 31/31/31 16/32/32 30/33/33
f 30/33/33 16/32/32 17/34/34
f 30/33/33 17/34/34 29/35/35
f 29/35/35 17/34/34 18/36/36
f 29/35/35 18/36/36 28/37/37
f 28/37/37 18/36/36 19/38/38
f 28/37/37 19/38/38 27/39/39
f 27/39/39 19/38/38 20/40/40
f 27/39/39 20/40/40 26/41/41
f 26/41/41 20/40/40 21/42/42
f 26/41/41 21/42/42 25/43/43
f 25/43/43 21/42/42 22/44/44
f 25/43/43 22/44/44 24/45/45
f 24/45/45 22/44/44 23/46/46
f 37/47/47 11/48/48 38/49/49
f 38/49/49 11/48/48 36/50/50
f 39/51/51 37/52/52 40/53/53
f 40/53/53 37/52/52 38/54/54
f 41/55/55 39/56/56 42/57/57
f 42/57/57 39/56/56 40/58/58
f 66/59/59 43/60/60 65/61/61
f 65/61/61 43/60/60 44/62/62
f 65/61/61 44/62/62 64/63/63
f 64/63/63 44/62/62 45/64/64
f 64/63/63 45/64/64 63/65/65
f 63/65/65 45/64/64 46/66/66
f 63/65/65 46/66/66 62/67/67
f 62/67/67 46/66/66 47/68/68
f 62/67/67 47/68/68 61/69/69
f 61/69/69 47/68/68 48/70/70
f 61/69/69 48/70/70 60/71/71
f 60/71/71 48/70/70 49/72/72
f 60/71/71 49/72/72 59/73/73
f 59/73/73 49/72/72 50/74/74
f 59/73/73 50/74/74 58/75/75
f 58/75/75 50/74/74 51/76/76
f 58/75/75 51/76/76 57/77/77
f 57/77/77 51/76/76 52/78/78
f 57/77/77 52/78/78 56/79/79
f 56/79/79 52/78/78 53/80/80
f 56/79/79 53/80/80 55/81/81
f 55/81/81 53/80/80 54/82/82
f 55/81/81 54/82/82 42/83/83
f 42/83/83 54/82/82 41/84/84
f 67/85/85 43/86/86 68/87/87
f 68/87/87 43/86/86 66/88/88
f 69/89/89 67/90/90 70/91/91
f 70/91/91 67/90/90 68/92/92
f 23/93/93 69/94/94 24/95/95
f 24/95/95 69/94/94 70/96/96
f 10/97/97 38/98/98 3/99/99
f 3/99/99 38/98/98 34/100/100
f 3/99/99 34/100/100 33/101/101
f 8/102/102 59/103/103 10/97/97
f 10/97/97 59/103/103 58/104/104
f 10/97/97 58/104/104 57/105/105
f 6/106/106 70/107/107 8/102/102
f 8/102/102 70/107/107 68/108/108
f 8/102/102 68/108/108 63/109/109
f 63/109/109 68/108/108 64/110/110
f 64/110/110 68/108/108 65/111/111
f 65/111/111 68/108/108 66/112/112
f 4/113/113 29/114/114 6/106/106
f 6/106/106 29/114/114 28/115/115
f 6/106/106 28/115/115 27/116/116
f 3/99/99 31/117/117 4/113/113
f 4/113/113 31/117/117 30/118/118
f 4/113/113 30/118/118 29/114/114
f 24/119/119 70/107/107 25/120/120
f 25/120/120 70/107/107 26/121/121
f 26/121/121 70/107/107 27/116/116
f 27/116/116 70/107/107 6/106/106
f 63/109/109 62/122/122 8/102/102
f 8/102/102 62/122/122 61/123/123
f 8/102/102 61/123/123 60/124/124
f 60/124/124 59/103/103 8/102/102
f 57/105/105 56/125/125 10/97/97
f 10/97/97 56/125/125 40/126/126
f 10/97/97 40/126/126 38/98/98
f 56/125/125 55/127/127 40/126/126
f 40/126/126 55/127/127 42/128/128
f 36/129/129 35/130/130 38/98/98
f 38/98/98 35/130/130 34/100/100
f 33/101/101 32/131/131 3/99/99
f 3/99/99 32/131/131 31/117/117
f 2/132/132 37/133/133 9/134/134
f 9/134/134 37/133/133 39/135/135
f 9/134/134 39/135/135 53/136/136
f 53/136/136 39/135/135 54/137/137
f 54/137/137 39/135/135 41/138/138
f 1/139/139 16/140/140 2/132/132
f 2/132/132 16/140/140 15/141/141
f 2/132/132 15/141/141 14/142/142
f 5/143/143 18/144/144 1/139/139
f 1/139/139 18/144/144 17/145/145
f 1/139/139 17/145/145 16/140/140
f 7/146/146 69/147/147 5/143/143
f 5/143/143 69/147/147 20/148/148
f 5/143/143 20/148/148 19/149/149
f 9/134/134 50/150/150 7/146/146
f 7/146/146 50/150/150 49/151/151
f 7/146/146 49/151/151 48/152/152
f 23/153/153 22/154/154 69/147/147
f 69/147/147 22/154/154 21/155/155
f 69/147/147 21/155/155 20/148/148
f 19/149/149 18/144/144 5/143/143
f 14/142/142 13/156/156 2/132/132
f 2/132/132 13/156/156 37/133/133
f 13/156/156 12/157/157 37/133/133
f 37/133/133 12/157/157 11/158/158
f 53/136/136 52/159/159 9/134/134
f 9/134/134 52/159/159 51/160/160
f 9/134/134 51/160/160 50/150/150
f 48/152/152 47/161/161 7/146/146
f 7/146/146 47/161/161 46/162/162
f 7/146/146 46/162/162 67/163/163
f 67/163/163 46/162/162 45/164/164
f 67/163/163 45/164/164 44/165/165
f 44/165/165 43/166/166 67/163/163
f 67/163/163 69/147/147 7/146/146
# 70 vertices
# 166 texture params
# 166 normals
# 140 facets

# 1 groups
