# WaveFront *.obj file (generated by Autodesk ATF)

mtllib spacerLittle.mtl

g Body1

v -0.240000 -0.385500 -0.000000
v -0.407750 -0.385500 -0.000000
v -0.407750 -0.385500 0.080000
v -0.240000 -0.385500 0.080000
v -0.240000 -0.425000 -0.000000
v -0.240000 -0.425000 0.080000
v 0.240000 -0.425000 -0.000000
v 0.240000 -0.425000 0.080000
v 0.240000 -0.385500 -0.000000
v 0.240000 -0.385500 0.080000
v 0.407750 -0.385500 -0.000000
v 0.407750 -0.385500 0.080000
v 0.407750 -0.159500 -0.000000
v 0.407750 -0.159500 0.080000
v 0.240000 -0.159500 -0.000000
v 0.240000 -0.159500 0.080000
v 0.240000 0.134000 -0.000000
v 0.240000 0.134000 0.080000
v 0.407750 0.134000 -0.000000
v 0.407750 0.134000 0.080000
v 0.407750 0.360000 -0.000000
v 0.407750 0.360000 0.080000
v 0.240000 0.360000 -0.000000
v 0.240000 0.360000 0.080000
v 0.240000 0.255000 -0.000000
v 0.240000 0.255000 0.080000
v -0.240000 0.255000 -0.000000
v -0.240000 0.255000 0.080000
v -0.240000 -0.159500 -0.000000
v -0.240000 -0.159500 0.080000
v -0.407750 -0.159500 -0.000000
v -0.407750 -0.159500 0.080000
v 0.500000 0.500000 0.000000
v -0.500000 0.500000 0.000000
v -0.500000 0.500000 0.080000
v 0.500000 0.500000 0.080000
v 0.500000 0.050000 0.000000
v 0.500000 0.050000 0.080000
v 0.500000 -0.050000 0.000000
v 0.487059 -0.048296 0.000000
v 0.475000 -0.043301 0.000000
v 0.464645 -0.035355 0.000000
v 0.456699 -0.025000 0.000000
v 0.451704 -0.012941 0.000000
v 0.450000 0.000000 0.000000
v 0.451704 0.012941 0.000000
v 0.456699 0.025000 0.000000
v 0.464645 0.035355 0.000000
v 0.475000 0.043301 0.000000
v 0.487059 0.048296 0.000000
v 0.487059 0.048296 0.080000
v 0.475000 0.043301 0.080000
v 0.464645 0.035355 0.080000
v 0.456699 0.025000 0.080000
v 0.451704 0.012941 0.080000
v 0.450000 0.000000 0.080000
v 0.451704 -0.012941 0.080000
v 0.456699 -0.025000 0.080000
v 0.464645 -0.035355 0.080000
v 0.475000 -0.043301 0.080000
v 0.487059 -0.048296 0.080000
v 0.500000 -0.050000 0.080000
v 0.500000 -0.500000 0.000000
v 0.500000 -0.500000 0.080000
v -0.500000 -0.500000 0.000000
v -0.500000 -0.500000 0.080000
v -0.500000 -0.050000 0.000000
v -0.500000 -0.050000 0.080000
v -0.500000 0.050000 0.000000
v -0.487059 0.048296 0.000000
v -0.475000 0.043301 0.000000
v -0.464645 0.035355 0.000000
v -0.456699 0.025000 0.000000
v -0.451704 0.012941 0.000000
v -0.450000 -0.000000 0.000000
v -0.451704 -0.012941 0.000000
v -0.456699 -0.025000 0.000000
v -0.464645 -0.035355 0.000000
v -0.475000 -0.043301 0.000000
v -0.487059 -0.048296 0.000000
v -0.487059 -0.048296 0.080000
v -0.475000 -0.043301 0.080000
v -0.464645 -0.035355 0.080000
v -0.456699 -0.025000 0.080000
v -0.451704 -0.012941 0.080000
v -0.450000 -0.000000 0.080000
v -0.451704 0.012941 0.080000
v -0.456699 0.025000 0.080000
v -0.464645 0.035355 0.080000
v -0.475000 0.043301 0.080000
v -0.487059 0.048296 0.080000
v -0.500000 0.050000 0.080000
vt -0.000000 0.000000 0.000000
vt 0.167750 0.000000 0.000000
vt -0.000000 0.080000 0.000000
vt 0.167750 0.080000 0.000000
vt 0.000000 0.000000 0.000000
vt 0.039500 0.000000 0.000000
vt -0.000000 0.080000 0.000000
vt 0.039500 0.080000 0.000000
vt 0.000000 0.000000 0.000000
vt 0.480000 0.000000 0.000000
vt -0.000000 0.080000 0.000000
vt 0.480000 0.080000 0.000000
vt 0.000000 0.000000 0.000000
vt 0.039500 0.000000 0.000000
vt 0.000000 0.080000 0.000000
vt 0.039500 0.080000 0.000000
vt -0.000000 0.000000 0.000000
vt 0.167750 0.000000 0.000000
vt -0.000000 0.080000 0.000000
vt 0.167750 0.080000 0.000000
vt 0.000000 0.000000 0.000000
vt 0.226000 0.000000 0.000000
vt 0.000000 0.080000 0.000000
vt 0.226000 0.080000 0.000000
vt 0.000000 0.000000 0.000000
vt 0.167750 0.000000 0.000000
vt 0.000000 0.080000 0.000000
vt 0.167750 0.080000 0.000000
vt 0.000000 0.000000 0.000000
vt 0.293500 0.000000 0.000000
vt 0.000000 0.080000 0.000000
vt 0.293500 0.080000 0.000000
vt -0.000000 0.000000 0.000000
vt 0.167750 0.000000 0.000000
vt -0.000000 0.080000 0.000000
vt 0.167750 0.080000 0.000000
vt 0.000000 0.000000 0.000000
vt 0.226000 0.000000 0.000000
vt -0.000000 0.080000 0.000000
vt 0.226000 0.080000 0.000000
vt 0.000000 0.000000 0.000000
vt 0.167750 0.000000 0.000000
vt 0.000000 0.080000 0.000000
vt 0.167750 0.080000 0.000000
vt 0.000000 0.000000 0.000000
vt 0.105000 0.000000 0.000000
vt -0.000000 0.080000 0.000000
vt 0.105000 0.080000 0.000000
vt 0.000000 0.000000 0.000000
vt 0.480000 -0.000000 0.000000
vt -0.000000 0.080000 0.000000
vt 0.480000 0.080000 0.000000
vt 0.000000 0.000000 0.000000
vt 0.414500 0.000000 0.000000
vt 0.000000 0.080000 0.000000
vt 0.414500 0.080000 0.000000
vt 0.000000 0.000000 0.000000
vt 0.167750 0.000000 0.000000
vt 0.000000 0.080000 0.000000
vt 0.167750 0.080000 0.000000
vt 0.000000 0.000000 0.000000
vt 0.226000 0.000000 0.000000
vt 0.000000 0.080000 0.000000
vt 0.226000 0.080000 0.000000
vt -0.000000 0.000000 0.000000
vt 1.000000 0.000000 0.000000
vt -0.000000 0.080000 0.000000
vt 1.000000 0.080000 0.000000
vt 0.000000 0.000000 0.000000
vt 0.450000 0.000000 0.000000
vt 0.000000 0.080000 0.000000
vt 0.450000 0.080000 0.000000
vt 0.080000 0.157080 0.000000
vt 0.000000 0.157080 0.000000
vt 0.080000 0.143990 0.000000
vt -0.000000 0.143990 0.000000
vt 0.080000 0.130900 0.000000
vt 0.000000 0.130900 0.000000
vt 0.080000 0.117810 0.000000
vt -0.000000 0.117810 0.000000
vt 0.080000 0.104720 0.000000
vt 0.000000 0.104720 0.000000
vt 0.080000 0.091630 0.000000
vt 0.000000 0.091630 0.000000
vt 0.080000 0.078540 0.000000
vt 0.000000 0.078540 0.000000
vt 0.080000 0.065450 0.000000
vt 0.000000 0.065450 0.000000
vt 0.080000 0.052360 0.000000
vt 0.000000 0.052360 0.000000
vt 0.080000 0.039270 0.000000
vt 0.000000 0.039270 0.000000
vt 0.080000 0.026180 0.000000
vt 0.000000 0.026180 0.000000
vt 0.080000 0.013090 0.000000
vt 0.000000 0.013090 0.000000
vt 0.080000 0.000000 0.000000
vt 0.000000 0.000000 0.000000
vt 0.000000 0.000000 0.000000
vt 0.450000 0.000000 0.000000
vt 0.000000 0.080000 0.000000
vt 0.450000 0.080000 0.000000
vt 0.000000 0.000000 0.000000
vt 1.000000 0.000000 0.000000
vt 0.000000 0.080000 0.000000
vt 1.000000 0.080000 0.000000
vt 0.000000 0.000000 0.000000
vt 0.450000 0.000000 0.000000
vt -0.000000 0.080000 0.000000
vt 0.450000 0.080000 0.000000
vt 0.080000 -0.157080 0.000000
vt 0.000000 -0.157080 0.000000
vt 0.080000 -0.170170 0.000000
vt 0.000000 -0.170170 0.000000
vt 0.080000 -0.183260 0.000000
vt 0.000000 -0.183260 0.000000
vt 0.080000 -0.196350 0.000000
vt 0.000000 -0.196350 0.000000
vt 0.080000 -0.209440 0.000000
vt 0.000000 -0.209440 0.000000
vt 0.080000 -0.222529 0.000000
vt 0.000000 -0.222529 0.000000
vt 0.080000 -0.235619 0.000000
vt 0.000000 -0.235619 0.000000
vt 0.080000 -0.248709 0.000000
vt 0.000000 -0.248709 0.000000
vt 0.080000 -0.261799 0.000000
vt 0.000000 -0.261799 0.000000
vt 0.080000 -0.274889 0.000000
vt 0.000000 -0.274889 0.000000
vt 0.080000 -0.287979 0.000000
vt -0.000000 -0.287979 0.000000
vt 0.080000 -0.301069 0.000000
vt 0.000000 -0.301069 0.000000
vt 0.080000 -0.314159 0.000000
vt 0.000000 -0.314159 0.000000
vt 0.000000 0.000000 0.000000
vt 0.450000 0.000000 0.000000
vt 0.000000 0.080000 0.000000
vt 0.450000 0.080000 0.000000
vt -0.407750 -0.159500 0.000000
vt -0.500000 -0.050000 0.000000
vt -0.407750 -0.385500 0.000000
vt -0.500000 -0.500000 0.000000
vt -0.240000 -0.425000 0.000000
vt 0.500000 -0.500000 0.000000
vt 0.240000 -0.425000 0.000000
vt 0.407750 -0.385500 0.000000
vt 0.240000 -0.385500 0.000000
vt -0.240000 -0.159500 0.000000
vt -0.451704 -0.012941 0.000000
vt -0.456699 -0.025000 0.000000
vt -0.464645 -0.035355 0.000000
vt -0.240000 0.255000 0.000000
vt -0.451704 0.012941 0.000000
vt -0.450000 -0.000000 0.000000
vt 0.240000 0.255000 0.000000
vt 0.240000 0.360000 0.000000
vt -0.500000 0.500000 0.000000
vt -0.500000 0.050000 0.000000
vt 0.500000 0.500000 0.000000
vt 0.407750 0.360000 0.000000
vt 0.500000 0.050000 0.000000
vt 0.407750 0.134000 0.000000
vt 0.487059 0.048296 0.000000
vt 0.475000 0.043301 0.000000
vt 0.464645 0.035355 0.000000
vt 0.456699 0.025000 0.000000
vt 0.451704 0.012941 0.000000
vt 0.240000 0.134000 0.000000
vt 0.450000 0.000000 0.000000
vt 0.240000 -0.159500 0.000000
vt 0.451704 -0.012941 0.000000
vt 0.407750 -0.159500 0.000000
vt 0.456699 -0.025000 0.000000
vt 0.464645 -0.035355 0.000000
vt 0.475000 -0.043301 0.000000
vt 0.487059 -0.048296 0.000000
vt 0.500000 -0.050000 0.000000
vt -0.240000 -0.385500 0.000000
vt -0.487059 0.048296 0.000000
vt -0.475000 0.043301 0.000000
vt -0.464645 0.035355 0.000000
vt -0.456699 0.025000 0.000000
vt -0.475000 -0.043301 0.000000
vt -0.487059 -0.048296 0.000000
vt 0.407750 -0.385500 0.000000
vt 0.500000 -0.050000 0.000000
vt 0.407750 -0.159500 0.000000
vt 0.487059 -0.048296 0.000000
vt 0.475000 -0.043301 0.000000
vt 0.240000 -0.385500 0.000000
vt 0.240000 -0.425000 0.000000
vt 0.500000 -0.500000 0.000000
vt -0.240000 -0.425000 0.000000
vt -0.500000 -0.500000 0.000000
vt -0.407750 -0.385500 0.000000
vt -0.500000 -0.050000 0.000000
vt -0.407750 -0.159500 0.000000
vt -0.487059 -0.048296 0.000000
vt -0.475000 -0.043301 0.000000
vt -0.464645 -0.035355 0.000000
vt -0.456699 -0.025000 0.000000
vt -0.451704 -0.012941 0.000000
vt -0.240000 -0.159500 0.000000
vt -0.450000 0.000000 0.000000
vt -0.240000 0.134000 0.000000
vt -0.451704 0.012941 0.000000
vt -0.407750 0.134000 0.000000
vt -0.456699 0.025000 0.000000
vt -0.464645 0.035355 0.000000
vt -0.475000 0.043301 0.000000
vt -0.487059 0.048296 0.000000
vt -0.500000 0.050000 0.000000
vt -0.407750 0.360000 0.000000
vt -0.500000 0.500000 0.000000
vt -0.240000 0.360000 0.000000
vt 0.500000 0.500000 0.000000
vt 0.240000 0.255000 0.000000
vt 0.500000 0.050000 0.000000
vt 0.487059 0.048296 0.000000
vt 0.475000 0.043301 0.000000
vt 0.464645 0.035355 0.000000
vt 0.456699 0.025000 0.000000
vt 0.451704 0.012941 0.000000
vt 0.240000 -0.159500 0.000000
vt 0.450000 -0.000000 0.000000
vt 0.451704 -0.012941 0.000000
vt 0.456699 -0.025000 0.000000
vt 0.464645 -0.035355 0.000000
vt -0.240000 -0.385500 0.000000
vt -0.240000 0.255000 0.000000
vn -0.000000 1.000000 0.000000
vn -0.000000 1.000000 0.000000
vn -0.000000 1.000000 0.000000
vn -0.000000 1.000000 0.000000
vn 1.000000 -0.000000 0.000000
vn 1.000000 -0.000000 0.000000
vn 1.000000 -0.000000 0.000000
vn 1.000000 -0.000000 0.000000
vn -0.000000 1.000000 0.000000
vn -0.000000 1.000000 0.000000
vn -0.000000 1.000000 0.000000
vn -0.000000 1.000000 0.000000
vn -1.000000 -0.000000 0.000000
vn -1.000000 -0.000000 0.000000
vn -1.000000 -0.000000 0.000000
vn -1.000000 -0.000000 0.000000
vn 0.000000 1.000000 0.000000
vn 0.000000 1.000000 0.000000
vn 0.000000 1.000000 0.000000
vn 0.000000 1.000000 0.000000
vn -1.000000 0.000000 0.000000
vn -1.000000 0.000000 0.000000
vn -1.000000 0.000000 0.000000
vn -1.000000 0.000000 0.000000
vn 0.000000 -1.000000 0.000000
vn 0.000000 -1.000000 0.000000
vn 0.000000 -1.000000 0.000000
vn 0.000000 -1.000000 0.000000
vn -1.000000 0.000000 0.000000
vn -1.000000 0.000000 0.000000
vn -1.000000 0.000000 0.000000
vn -1.000000 0.000000 0.000000
vn 0.000000 1.000000 0.000000
vn 0.000000 1.000000 0.000000
vn 0.000000 1.000000 0.000000
vn 0.000000 1.000000 0.000000
vn -1.000000 0.000000 0.000000
vn -1.000000 0.000000 0.000000
vn -1.000000 0.000000 0.000000
vn -1.000000 0.000000 0.000000
vn 0.000000 -1.000000 0.000000
vn 0.000000 -1.000000 0.000000
vn 0.000000 -1.000000 0.000000
vn 0.000000 -1.000000 0.000000
vn 1.000000 0.000000 -0.000000
vn 1.000000 0.000000 -0.000000
vn 1.000000 0.000000 -0.000000
vn 1.000000 0.000000 -0.000000
vn 0.000000 -1.000000 0.000000
vn 0.000000 -1.000000 0.000000
vn 0.000000 -1.000000 0.000000
vn 0.000000 -1.000000 0.000000
vn 1.000000 0.000000 -0.000000
vn 1.000000 0.000000 -0.000000
vn 1.000000 0.000000 -0.000000
vn 1.000000 0.000000 -0.000000
vn 0.000000 -1.000000 0.000000
vn 0.000000 -1.000000 0.000000
vn 0.000000 -1.000000 0.000000
vn 0.000000 -1.000000 0.000000
vn 1.000000 0.000000 -0.000000
vn 1.000000 0.000000 -0.000000
vn 1.000000 0.000000 -0.000000
vn 1.000000 0.000000 -0.000000
vn 0.000000 1.000000 0.000000
vn 0.000000 1.000000 0.000000
vn 0.000000 1.000000 0.000000
vn 0.000000 1.000000 0.000000
vn 1.000000 0.000000 -0.000000
vn 1.000000 0.000000 -0.000000
vn 1.000000 0.000000 -0.000000
vn 1.000000 0.000000 -0.000000
vn 0.000000 1.000000 -0.000000
vn 0.000000 1.000000 -0.000000
vn 0.258819 0.965926 -0.000000
vn 0.258819 0.965926 -0.000000
vn 0.500000 0.866025 -0.000000
vn 0.500000 0.866025 -0.000000
vn 0.707107 0.707107 -0.000000
vn 0.707107 0.707107 -0.000000
vn 0.866025 0.500000 -0.000000
vn 0.866025 0.500000 -0.000000
vn 0.965926 0.258819 -0.000000
vn 0.965926 0.258819 -0.000000
vn 1.000000 -0.000000 0.000000
vn 1.000000 -0.000000 0.000000
vn 0.965926 -0.258819 0.000000
vn 0.965926 -0.258819 0.000000
vn 0.866025 -0.500000 0.000000
vn 0.866025 -0.500000 0.000000
vn 0.707107 -0.707107 0.000000
vn 0.707107 -0.707107 0.000000
vn 0.500000 -0.866025 0.000000
vn 0.500000 -0.866025 0.000000
vn 0.258819 -0.965926 0.000000
vn 0.258819 -0.965926 0.000000
vn 0.000000 -1.000000 0.000000
vn 0.000000 -1.000000 0.000000
vn 1.000000 0.000000 -0.000000
vn 1.000000 0.000000 -0.000000
vn 1.000000 0.000000 -0.000000
vn 1.000000 0.000000 -0.000000
vn 0.000000 -1.000000 0.000000
vn 0.000000 -1.000000 0.000000
vn 0.000000 -1.000000 0.000000
vn 0.000000 -1.000000 0.000000
vn -1.000000 0.000000 0.000000
vn -1.000000 0.000000 0.000000
vn -1.000000 0.000000 0.000000
vn -1.000000 0.000000 0.000000
vn 0.000000 -1.000000 0.000000
vn 0.000000 -1.000000 0.000000
vn -0.258819 -0.965926 0.000000
vn -0.258819 -0.965926 0.000000
vn -0.500000 -0.866025 0.000000
vn -0.500000 -0.866025 0.000000
vn -0.707107 -0.707107 0.000000
vn -0.707107 -0.707107 0.000000
vn -0.866025 -0.500000 0.000000
vn -0.866025 -0.500000 0.000000
vn -0.965926 -0.258819 0.000000
vn -0.965926 -0.258819 0.000000
vn -1.000000 -0.000000 0.000000
vn -1.000000 -0.000000 0.000000
vn -0.965926 0.258819 0.000000
vn -0.965926 0.258819 0.000000
vn -0.866025 0.500000 0.000000
vn -0.866025 0.500000 0.000000
vn -0.707107 0.707107 0.000000
vn -0.707107 0.707107 0.000000
vn -0.500000 0.866025 0.000000
vn -0.500000 0.866025 0.000000
vn -0.258819 0.965926 0.000000
vn -0.258819 0.965926 0.000000
vn -0.000000 1.000000 0.000000
vn -0.000000 1.000000 0.000000
vn -1.000000 0.000000 0.000000
vn -1.000000 0.000000 0.000000
vn -1.000000 0.000000 0.000000
vn -1.000000 0.000000 0.000000
vn 0.000000 0.000000 1.000000
vn 0.000000 0.000000 1.000000
vn 0.000000 0.000000 1.000000
vn 0.000000 0.000000 1.000000
vn 0.000000 0.000000 1.000000
vn 0.000000 0.000000 1.000000
vn 0.000000 0.000000 1.000000
vn 0.000000 0.000000 1.000000
vn 0.000000 0.000000 1.000000
vn 0.000000 0.000000 1.000000
vn 0.000000 0.000000 1.000000
vn 0.000000 0.000000 1.000000
vn 0.000000 0.000000 1.000000
vn 0.000000 0.000000 1.000000
vn 0.000000 0.000000 1.000000
vn 0.000000 0.000000 1.000000
vn 0.000000 0.000000 1.000000
vn 0.000000 0.000000 1.000000
vn 0.000000 0.000000 1.000000
vn 0.000000 0.000000 1.000000
vn 0.000000 0.000000 1.000000
vn 0.000000 0.000000 1.000000
vn 0.000000 0.000000 1.000000
vn 0.000000 0.000000 1.000000
vn 0.000000 0.000000 1.000000
vn 0.000000 0.000000 1.000000
vn 0.000000 0.000000 1.000000
vn 0.000000 0.000000 1.000000
vn 0.000000 0.000000 1.000000
vn 0.000000 0.000000 1.000000
vn 0.000000 0.000000 1.000000
vn 0.000000 0.000000 1.000000
vn 0.000000 0.000000 1.000000
vn 0.000000 0.000000 1.000000
vn 0.000000 0.000000 1.000000
vn 0.000000 0.000000 1.000000
vn 0.000000 0.000000 1.000000
vn 0.000000 0.000000 1.000000
vn 0.000000 0.000000 1.000000
vn 0.000000 0.000000 1.000000
vn 0.000000 0.000000 1.000000
vn 0.000000 0.000000 1.000000
vn 0.000000 0.000000 1.000000
vn 0.000000 0.000000 1.000000
vn 0.000000 0.000000 1.000000
vn 0.000000 0.000000 1.000000
vn 0.000000 -0.000000 -1.000000
vn 0.000000 -0.000000 -1.000000
vn 0.000000 -0.000000 -1.000000
vn 0.000000 -0.000000 -1.000000
vn 0.000000 -0.000000 -1.000000
vn 0.000000 -0.000000 -1.000000
vn 0.000000 -0.000000 -1.000000
vn 0.000000 -0.000000 -1.000000
vn 0.000000 -0.000000 -1.000000
vn 0.000000 -0.000000 -1.000000
vn 0.000000 -0.000000 -1.000000
vn 0.000000 -0.000000 -1.000000
vn 0.000000 -0.000000 -1.000000
vn 0.000000 -0.000000 -1.000000
vn 0.000000 -0.000000 -1.000000
vn 0.000000 -0.000000 -1.000000
vn 0.000000 -0.000000 -1.000000
vn 0.000000 -0.000000 -1.000000
vn 0.000000 -0.000000 -1.000000
vn 0.000000 -0.000000 -1.000000
vn 0.000000 -0.000000 -1.000000
vn 0.000000 -0.000000 -1.000000
vn 0.000000 -0.000000 -1.000000
vn 0.000000 -0.000000 -1.000000
vn 0.000000 -0.000000 -1.000000
vn 0.000000 -0.000000 -1.000000
vn 0.000000 -0.000000 -1.000000
vn 0.000000 -0.000000 -1.000000
vn 0.000000 -0.000000 -1.000000
vn 0.000000 -0.000000 -1.000000
vn 0.000000 -0.000000 -1.000000
vn 0.000000 -0.000000 -1.000000
vn 0.000000 -0.000000 -1.000000
vn 0.000000 -0.000000 -1.000000
vn 0.000000 -0.000000 -1.000000
vn 0.000000 -0.000000 -1.000000
vn 0.000000 -0.000000 -1.000000
vn 0.000000 -0.000000 -1.000000
vn 0.000000 -0.000000 -1.000000
vn 0.000000 -0.000000 -1.000000
vn 0.000000 -0.000000 -1.000000
vn 0.000000 -0.000000 -1.000000
vn 0.000000 -0.000000 -1.000000
vn 0.000000 -0.000000 -1.000000
vn 0.000000 -0.000000 -1.000000
vn 0.000000 -0.000000 -1.000000
usemtl FR4
f 1/1/1 2/2/2 4/3/3
f 4/3/3 2/2/2 3/4/4
f 5/5/5 1/6/6 6/7/7
f 6/7/7 1/6/6 4/8/8
f 7/9/9 5/10/10 8/11/11
f 8/11/11 5/10/10 6/12/12
f 9/13/13 7/14/14 10/15/15
f 10/15/15 7/14/14 8/16/16
f 11/17/17 9/18/18 12/19/19
f 12/19/19 9/18/18 10/20/20
f 13/21/21 11/22/22 14/23/23
f 14/23/23 11/22/22 12/24/24
f 15/25/25 13/26/26 16/27/27
f 16/27/27 13/26/26 14/28/28
f 17/29/29 15/30/30 18/31/31
f 18/31/31 15/30/30 16/32/32
f 19/33/33 17/34/34 20/35/35
f 20/35/35 17/34/34 18/36/36
f 21/37/37 19/38/38 22/39/39
f 22/39/39 19/38/38 20/40/40
f 23/41/41 21/42/42 24/43/43
f 24/43/43 21/42/42 22/44/44
f 25/45/45 23/46/46 26/47/47
f 26/47/47 23/46/46 24/48/48
f 27/49/49 25/50/50 28/51/51
f 28/51/51 25/50/50 26/52/52
f 29/53/53 27/54/54 30/55/55
f 30/55/55 27/54/54 28/56/56
f 31/57/57 29/58/58 32/59/59
f 32/59/59 29/58/58 30/60/60
f 2/61/61 31/62/62 3/63/63
f 3/63/63 31/62/62 32/64/64
f 33/65/65 34/66/66 36/67/67
f 36/67/67 34/66/66 35/68/68
f 37/69/69 33/70/70 38/71/71
f 38/71/71 33/70/70 36/72/72
f 62/73/73 39/74/74 61/75/75
f 61/75/75 39/74/74 40/76/76
f 61/75/75 40/76/76 60/77/77
f 60/77/77 40/76/76 41/78/78
f 60/77/77 41/78/78 59/79/79
f 59/79/79 41/78/78 42/80/80
f 59/79/79 42/80/80 58/81/81
f 58/81/81 42/80/80 43/82/82
f 58/81/81 43/82/82 57/83/83
f 57/83/83 43/82/82 44/84/84
f 57/83/83 44/84/84 56/85/85
f 56/85/85 44/84/84 45/86/86
f 56/85/85 45/86/86 55/87/87
f 55/87/87 45/86/86 46/88/88
f 55/87/87 46/88/88 54/89/89
f 54/89/89 46/88/88 47/90/90
f 54/89/89 47/90/90 53/91/91
f 53/91/91 47/90/90 48/92/92
f 53/91/91 48/92/92 52/93/93
f 52/93/93 48/92/92 49/94/94
f 52/93/93 49/94/94 51/95/95
f 51/95/95 49/94/94 50/96/96
f 51/95/95 50/96/96 38/97/97
f 38/97/97 50/96/96 37/98/98
f 63/99/99 39/100/100 64/101/101
f 64/101/101 39/100/100 62/102/102
f 65/103/103 63/104/104 66/105/105
f 66/105/105 63/104/104 64/106/106
f 67/107/107 65/108/108 68/109/109
f 68/109/109 65/108/108 66/110/110
f 92/111/111 69/112/112 91/113/113
f 91/113/113 69/112/112 70/114/114
f 91/113/113 70/114/114 90/115/115
f 90/115/115 70/114/114 71/116/116
f 90/115/115 71/116/116 89/117/117
f 89/117/117 71/116/116 72/118/118
f 89/117/117 72/118/118 88/119/119
f 88/119/119 72/118/118 73/120/120
f 88/119/119 73/120/120 87/121/121
f 87/121/121 73/120/120 74/122/122
f 87/121/121 74/122/122 86/123/123
f 86/123/123 74/122/122 75/124/124
f 86/123/123 75/124/124 85/125/125
f 85/125/125 75/124/124 76/126/126
f 85/125/125 76/126/126 84/127/127
f 84/127/127 76/126/126 77/128/128
f 84/127/127 77/128/128 83/129/129
f 83/129/129 77/128/128 78/130/130
f 83/129/129 78/130/130 82/131/131
f 82/131/131 78/130/130 79/132/132
f 82/131/131 79/132/132 81/133/133
f 81/133/133 79/132/132 80/134/134
f 81/133/133 80/134/134 68/135/135
f 68/135/135 80/134/134 67/136/136
f 34/137/137 69/138/138 35/139/139
f 35/139/139 69/138/138 92/140/140
f 32/141/141 68/142/142 3/143/143
f 3/143/143 68/142/142 66/144/144
f 3/143/143 66/144/144 6/145/145
f 6/145/145 66/144/144 64/146/146
f 6/145/145 64/146/146 8/147/147
f 8/147/147 64/146/146 12/148/148
f 8/147/147 12/148/148 10/149/149
f 30/150/150 85/151/151 32/141/141
f 32/141/141 85/151/151 84/152/152
f 32/141/141 84/152/152 83/153/153
f 28/154/154 87/155/155 30/150/150
f 30/150/150 87/155/155 86/156/156
f 30/150/150 86/156/156 85/151/151
f 26/157/157 24/158/158 28/154/154
f 28/154/154 24/158/158 35/159/159
f 28/154/154 35/159/159 92/160/160
f 35/159/159 24/158/158 36/161/161
f 36/161/161 24/158/158 22/162/162
f 36/161/161 22/162/162 38/163/163
f 38/163/163 22/162/162 20/164/164
f 38/163/163 20/164/164 51/165/165
f 51/165/165 20/164/164 52/166/166
f 52/166/166 20/164/164 53/167/167
f 53/167/167 20/164/164 54/168/168
f 54/168/168 20/164/164 55/169/169
f 55/169/169 20/164/164 18/170/170
f 55/169/169 18/170/170 56/171/171
f 56/171/171 18/170/170 16/172/172
f 56/171/171 16/172/172 57/173/173
f 57/173/173 16/172/172 14/174/174
f 57/173/173 14/174/174 58/175/175
f 58/175/175 14/174/174 59/176/176
f 59/176/176 14/174/174 60/177/177
f 60/177/177 14/174/174 61/178/178
f 61/178/178 14/174/174 62/179/179
f 62/179/179 14/174/174 12/148/148
f 62/179/179 12/148/148 64/146/146
f 6/145/145 4/180/180 3/143/143
f 92/160/160 91/181/181 28/154/154
f 28/154/154 91/181/181 90/182/182
f 28/154/154 90/182/182 89/183/183
f 89/183/183 88/184/184 28/154/154
f 28/154/154 88/184/184 87/155/155
f 83/153/153 82/185/185 32/141/141
f 32/141/141 82/185/185 81/186/186
f 32/141/141 81/186/186 68/142/142
f 2/187/187 67/188/188 31/189/189
f 31/189/189 67/188/188 80/190/190
f 31/189/189 80/190/190 79/191/191
f 1/192/192 5/193/193 2/187/187
f 2/187/187 5/193/193 65/194/194
f 2/187/187 65/194/194 67/188/188
f 5/193/193 7/195/195 65/194/194
f 65/194/194 7/195/195 63/196/196
f 63/196/196 7/195/195 11/197/197
f 63/196/196 11/197/197 39/198/198
f 39/198/198 11/197/197 13/199/199
f 39/198/198 13/199/199 40/200/200
f 40/200/200 13/199/199 41/201/201
f 41/201/201 13/199/199 42/202/202
f 42/202/202 13/199/199 43/203/203
f 43/203/203 13/199/199 44/204/204
f 44/204/204 13/199/199 15/205/205
f 44/204/204 15/205/205 45/206/206
f 45/206/206 15/205/205 17/207/207
f 45/206/206 17/207/207 46/208/208
f 46/208/208 17/207/207 19/209/209
f 46/208/208 19/209/209 47/210/210
f 47/210/210 19/209/209 48/211/211
f 48/211/211 19/209/209 49/212/212
f 49/212/212 19/209/209 50/213/213
f 50/213/213 19/209/209 37/214/214
f 37/214/214 19/209/209 21/215/215
f 37/214/214 21/215/215 33/216/216
f 33/216/216 21/215/215 23/217/217
f 33/216/216 23/217/217 34/218/218
f 34/218/218 23/217/217 27/219/219
f 34/218/218 27/219/219 69/220/220
f 69/220/220 27/219/219 70/221/221
f 70/221/221 27/219/219 71/222/222
f 71/222/222 27/219/219 72/223/223
f 72/223/223 27/219/219 73/224/224
f 73/224/224 27/219/219 74/225/225
f 74/225/225 27/219/219 29/226/226
f 74/225/225 29/226/226 75/227/227
f 75/227/227 29/226/226 76/228/228
f 76/228/228 29/226/226 31/189/189
f 76/228/228 31/189/189 77/229/229
f 77/229/229 31/189/189 78/230/230
f 78/230/230 31/189/189 79/191/191
f 7/195/195 9/231/231 11/197/197
f 23/217/217 25/232/232 27/219/219
# 92 vertices
# 232 texture params
# 232 normals
# 184 facets

# 1 groups
