# WaveFront *.obj file (generated by Autodesk ATF)

mtllib big spacerspacerBig.mtl

g Body1

v 0.290000 0.134000 -0.000000
v 0.290000 -0.159500 -0.000000
v 0.290000 -0.159500 0.100000
v 0.290000 0.134000 0.100000
v 0.407750 0.134000 -0.000000
v 0.407750 0.134000 0.100000
v 0.407750 0.360000 -0.000000
v 0.407750 0.360000 0.100000
v 0.290000 0.360000 -0.000000
v 0.290000 0.360000 0.100000
v 0.290000 0.440000 -0.000000
v 0.290000 0.440000 0.100000
v -0.290000 0.440000 -0.000000
v -0.290000 0.440000 0.100000
v -0.290000 -0.159500 -0.000000
v -0.290000 -0.159500 0.100000
v -0.407750 -0.159500 -0.000000
v -0.407750 -0.159500 0.100000
v -0.407750 -0.385500 -0.000000
v -0.407750 -0.385500 0.100000
v -0.290000 -0.385500 -0.000000
v -0.290000 -0.385500 0.100000
v -0.290000 -0.440000 -0.000000
v -0.290000 -0.440000 0.100000
v 0.290000 -0.440000 -0.000000
v 0.290000 -0.440000 0.100000
v 0.290000 -0.385500 -0.000000
v 0.290000 -0.385500 0.100000
v 0.407750 -0.385500 -0.000000
v 0.407750 -0.385500 0.100000
v 0.407750 -0.159500 -0.000000
v 0.407750 -0.159500 0.100000
v 0.500000 0.500000 0.000000
v -0.500000 0.500000 0.000000
v -0.500000 0.500000 0.100000
v 0.500000 0.500000 0.100000
v 0.500000 0.050000 0.000000
v 0.500000 0.050000 0.100000
v 0.500000 -0.050000 0.000000
v 0.487059 -0.048296 0.000000
v 0.475000 -0.043301 0.000000
v 0.464645 -0.035355 0.000000
v 0.456699 -0.025000 0.000000
v 0.451704 -0.012941 0.000000
v 0.450000 0.000000 0.000000
v 0.451704 0.012941 0.000000
v 0.456699 0.025000 0.000000
v 0.464645 0.035355 0.000000
v 0.475000 0.043301 0.000000
v 0.487059 0.048296 0.000000
v 0.487059 0.048296 0.100000
v 0.475000 0.043301 0.100000
v 0.464645 0.035355 0.100000
v 0.456699 0.025000 0.100000
v 0.451704 0.012941 0.100000
v 0.450000 0.000000 0.100000
v 0.451704 -0.012941 0.100000
v 0.456699 -0.025000 0.100000
v 0.464645 -0.035355 0.100000
v 0.475000 -0.043301 0.100000
v 0.487059 -0.048296 0.100000
v 0.500000 -0.050000 0.100000
v 0.500000 -0.500000 0.000000
v 0.500000 -0.500000 0.100000
v -0.500000 -0.500000 0.000000
v -0.500000 -0.500000 0.100000
v -0.500000 -0.050000 0.000000
v -0.500000 -0.050000 0.100000
v -0.500000 0.050000 0.000000
v -0.487059 0.048296 0.000000
v -0.475000 0.043301 0.000000
v -0.464645 0.035355 0.000000
v -0.456699 0.025000 0.000000
v -0.451704 0.012941 0.000000
v -0.450000 -0.000000 0.000000
v -0.451704 -0.012941 0.000000
v -0.456699 -0.025000 0.000000
v -0.464645 -0.035355 0.000000
v -0.475000 -0.043301 0.000000
v -0.487059 -0.048296 0.000000
v -0.487059 -0.048296 0.100000
v -0.475000 -0.043301 0.100000
v -0.464645 -0.035355 0.100000
v -0.456699 -0.025000 0.100000
v -0.451704 -0.012941 0.100000
v -0.450000 -0.000000 0.100000
v -0.451704 0.012941 0.100000
v -0.456699 0.025000 0.100000
v -0.464645 0.035355 0.100000
v -0.475000 0.043301 0.100000
v -0.487059 0.048296 0.100000
v -0.500000 0.050000 0.100000
vt -0.000000 0.000000 0.000000
vt 0.293500 0.000000 0.000000
vt -0.000000 0.100000 0.000000
vt 0.293500 0.100000 0.000000
vt 0.000000 0.000000 0.000000
vt 0.117750 0.000000 0.000000
vt 0.000000 0.100000 0.000000
vt 0.117750 0.100000 0.000000
vt 0.000000 0.000000 0.000000
vt 0.226000 0.000000 0.000000
vt -0.000000 0.100000 0.000000
vt 0.226000 0.100000 0.000000
vt 0.000000 0.000000 0.000000
vt 0.117750 0.000000 0.000000
vt 0.000000 0.100000 0.000000
vt 0.117750 0.100000 0.000000
vt 0.000000 0.000000 0.000000
vt 0.080000 0.000000 0.000000
vt 0.000000 0.100000 0.000000
vt 0.080000 0.100000 0.000000
vt 0.000000 0.000000 0.000000
vt 0.580000 0.000000 0.000000
vt -0.000000 0.100000 0.000000
vt 0.580000 0.100000 0.000000
vt -0.000000 0.000000 0.000000
vt 0.599500 0.000000 0.000000
vt -0.000000 0.100000 0.000000
vt 0.599500 0.100000 0.000000
vt 0.000000 0.000000 0.000000
vt 0.117750 0.000000 0.000000
vt 0.000000 0.100000 0.000000
vt 0.117750 0.100000 0.000000
vt 0.000000 0.000000 0.000000
vt 0.226000 0.000000 0.000000
vt 0.000000 0.100000 0.000000
vt 0.226000 0.100000 0.000000
vt -0.000000 0.000000 0.000000
vt 0.117750 0.000000 0.000000
vt -0.000000 0.100000 0.000000
vt 0.117750 0.100000 0.000000
vt 0.000000 0.000000 0.000000
vt 0.054500 0.000000 0.000000
vt -0.000000 0.100000 0.000000
vt 0.054500 0.100000 0.000000
vt -0.000000 0.000000 0.000000
vt 0.580000 0.000000 0.000000
vt -0.000000 0.100000 0.000000
vt 0.580000 0.100000 0.000000
vt 0.000000 0.000000 0.000000
vt 0.054500 0.000000 0.000000
vt 0.000000 0.100000 0.000000
vt 0.054500 0.100000 0.000000
vt 0.000000 0.000000 0.000000
vt 0.117750 0.000000 0.000000
vt 0.000000 0.100000 0.000000
vt 0.117750 0.100000 0.000000
vt 0.000000 0.000000 0.000000
vt 0.226000 0.000000 0.000000
vt 0.000000 0.100000 0.000000
vt 0.226000 0.100000 0.000000
vt 0.000000 0.000000 0.000000
vt 0.117750 0.000000 0.000000
vt 0.000000 0.100000 0.000000
vt 0.117750 0.100000 0.000000
vt -0.000000 0.000000 0.000000
vt 1.000000 0.000000 0.000000
vt -0.000000 0.100000 0.000000
vt 1.000000 0.100000 0.000000
vt 0.000000 0.000000 0.000000
vt 0.450000 0.000000 0.000000
vt 0.000000 0.100000 0.000000
vt 0.450000 0.100000 0.000000
vt 0.100000 0.157080 0.000000
vt 0.000000 0.157080 0.000000
vt 0.100000 0.143990 0.000000
vt -0.000000 0.143990 0.000000
vt 0.100000 0.130900 0.000000
vt 0.000000 0.130900 0.000000
vt 0.100000 0.117810 0.000000
vt -0.000000 0.117810 0.000000
vt 0.100000 0.104720 0.000000
vt 0.000000 0.104720 0.000000
vt 0.100000 0.091630 0.000000
vt 0.000000 0.091630 0.000000
vt 0.100000 0.078540 0.000000
vt 0.000000 0.078540 0.000000
vt 0.100000 0.065450 0.000000
vt 0.000000 0.065450 0.000000
vt 0.100000 0.052360 0.000000
vt 0.000000 0.052360 0.000000
vt 0.100000 0.039270 0.000000
vt 0.000000 0.039270 0.000000
vt 0.100000 0.026180 0.000000
vt 0.000000 0.026180 0.000000
vt 0.100000 0.013090 0.000000
vt 0.000000 0.013090 0.000000
vt 0.100000 0.000000 0.000000
vt 0.000000 0.000000 0.000000
vt 0.000000 0.000000 0.000000
vt 0.450000 0.000000 0.000000
vt 0.000000 0.100000 0.000000
vt 0.450000 0.100000 0.000000
vt 0.000000 0.000000 0.000000
vt 1.000000 0.000000 0.000000
vt 0.000000 0.100000 0.000000
vt 1.000000 0.100000 0.000000
vt 0.000000 0.000000 0.000000
vt 0.450000 0.000000 0.000000
vt 0.000000 0.100000 0.000000
vt 0.450000 0.100000 0.000000
vt 0.100000 -0.157080 0.000000
vt 0.000000 -0.157080 0.000000
vt 0.100000 -0.170170 0.000000
vt 0.000000 -0.170170 0.000000
vt 0.100000 -0.183260 0.000000
vt 0.000000 -0.183260 0.000000
vt 0.100000 -0.196350 0.000000
vt 0.000000 -0.196350 0.000000
vt 0.100000 -0.209440 0.000000
vt 0.000000 -0.209440 0.000000
vt 0.100000 -0.222529 0.000000
vt 0.000000 -0.222529 0.000000
vt 0.100000 -0.235619 0.000000
vt 0.000000 -0.235619 0.000000
vt 0.100000 -0.248709 0.000000
vt 0.000000 -0.248709 0.000000
vt 0.100000 -0.261799 0.000000
vt 0.000000 -0.261799 0.000000
vt 0.100000 -0.274889 0.000000
vt 0.000000 -0.274889 0.000000
vt 0.100000 -0.287979 0.000000
vt -0.000000 -0.287979 0.000000
vt 0.100000 -0.301069 0.000000
vt 0.000000 -0.301069 0.000000
vt 0.100000 -0.314159 0.000000
vt 0.000000 -0.314159 0.000000
vt 0.000000 0.000000 0.000000
vt 0.450000 0.000000 0.000000
vt 0.000000 0.100000 0.000000
vt 0.450000 0.100000 0.000000
vt 0.407750 -0.159500 0.000000
vt 0.451704 -0.012941 0.000000
vt 0.290000 -0.159500 0.000000
vt 0.450000 0.000000 0.000000
vt 0.290000 0.134000 0.000000
vt 0.451704 0.012941 0.000000
vt 0.407750 0.134000 0.000000
vt 0.456699 0.025000 0.000000
vt 0.464645 0.035355 0.000000
vt 0.407750 -0.385500 0.000000
vt 0.500000 -0.050000 0.000000
vt 0.487059 -0.048296 0.000000
vt 0.475000 -0.043301 0.000000
vt 0.290000 -0.385500 0.000000
vt 0.290000 -0.440000 0.000000
vt 0.500000 -0.500000 0.000000
vt -0.290000 -0.440000 0.000000
vt -0.500000 -0.500000 0.000000
vt -0.407750 -0.385500 0.000000
vt -0.500000 -0.050000 0.000000
vt -0.407750 -0.159500 0.000000
vt -0.487059 -0.048296 0.000000
vt -0.475000 -0.043301 0.000000
vt -0.464645 -0.035355 0.000000
vt -0.456699 -0.025000 0.000000
vt -0.451704 -0.012941 0.000000
vt -0.290000 -0.159500 0.000000
vt -0.450000 -0.000000 0.000000
vt -0.451704 0.012941 0.000000
vt -0.290000 0.440000 0.000000
vt -0.456699 0.025000 0.000000
vt -0.464645 0.035355 0.000000
vt -0.475000 0.043301 0.000000
vt -0.487059 0.048296 0.000000
vt -0.500000 0.500000 0.000000
vt -0.500000 0.050000 0.000000
vt -0.290000 -0.385500 0.000000
vt 0.290000 0.440000 0.000000
vt 0.500000 0.500000 0.000000
vt 0.407750 0.360000 0.000000
vt 0.500000 0.050000 0.000000
vt 0.487059 0.048296 0.000000
vt 0.475000 0.043301 0.000000
vt 0.290000 0.360000 0.000000
vt 0.464645 -0.035355 0.000000
vt 0.456699 -0.025000 0.000000
vt -0.290000 -0.159500 0.000000
vt -0.451704 -0.012941 0.000000
vt -0.407750 -0.159500 0.000000
vt -0.456699 -0.025000 0.000000
vt -0.464645 -0.035355 0.000000
vt -0.450000 0.000000 0.000000
vt -0.290000 0.134000 0.000000
vt -0.451704 0.012941 0.000000
vt -0.407750 0.134000 0.000000
vt -0.456699 0.025000 0.000000
vt -0.464645 0.035355 0.000000
vt -0.475000 0.043301 0.000000
vt -0.487059 0.048296 0.000000
vt -0.500000 0.050000 0.000000
vt -0.407750 0.360000 0.000000
vt -0.500000 0.500000 0.000000
vt -0.290000 0.440000 0.000000
vt 0.290000 0.440000 0.000000
vt -0.290000 0.360000 0.000000
vt 0.290000 -0.159500 0.000000
vt 0.451704 0.012941 0.000000
vt 0.456699 0.025000 0.000000
vt 0.464645 0.035355 0.000000
vt 0.407750 -0.159500 0.000000
vt 0.451704 -0.012941 0.000000
vt 0.450000 -0.000000 0.000000
vt 0.407750 -0.385500 0.000000
vt 0.500000 -0.050000 0.000000
vt 0.487059 -0.048296 0.000000
vt 0.475000 -0.043301 0.000000
vt 0.290000 -0.385500 0.000000
vt 0.290000 -0.440000 0.000000
vt 0.500000 -0.500000 0.000000
vt -0.290000 -0.440000 0.000000
vt -0.500000 -0.500000 0.000000
vt -0.407750 -0.385500 0.000000
vt -0.500000 -0.050000 0.000000
vt -0.487059 -0.048296 0.000000
vt -0.475000 -0.043301 0.000000
vt -0.290000 -0.385500 0.000000
vt 0.500000 0.050000 0.000000
vt 0.500000 0.500000 0.000000
vt 0.487059 0.048296 0.000000
vt 0.475000 0.043301 0.000000
vt 0.464645 -0.035355 0.000000
vt 0.456699 -0.025000 0.000000
vn -1.000000 0.000000 0.000000
vn -1.000000 0.000000 0.000000
vn -1.000000 0.000000 0.000000
vn -1.000000 0.000000 0.000000
vn 0.000000 1.000000 -0.000000
vn 0.000000 1.000000 -0.000000
vn 0.000000 1.000000 -0.000000
vn 0.000000 1.000000 -0.000000
vn -1.000000 0.000000 0.000000
vn -1.000000 0.000000 0.000000
vn -1.000000 0.000000 0.000000
vn -1.000000 0.000000 0.000000
vn 0.000000 -1.000000 0.000000
vn 0.000000 -1.000000 0.000000
vn 0.000000 -1.000000 0.000000
vn 0.000000 -1.000000 0.000000
vn -1.000000 0.000000 0.000000
vn -1.000000 0.000000 0.000000
vn -1.000000 0.000000 0.000000
vn -1.000000 0.000000 0.000000
vn 0.000000 -1.000000 0.000000
vn 0.000000 -1.000000 0.000000
vn 0.000000 -1.000000 0.000000
vn 0.000000 -1.000000 0.000000
vn 1.000000 0.000000 -0.000000
vn 1.000000 0.000000 -0.000000
vn 1.000000 0.000000 -0.000000
vn 1.000000 0.000000 -0.000000
vn 0.000000 -1.000000 0.000000
vn 0.000000 -1.000000 0.000000
vn 0.000000 -1.000000 0.000000
vn 0.000000 -1.000000 0.000000
vn 1.000000 0.000000 -0.000000
vn 1.000000 0.000000 -0.000000
vn 1.000000 0.000000 -0.000000
vn 1.000000 0.000000 -0.000000
vn -0.000000 1.000000 0.000000
vn -0.000000 1.000000 0.000000
vn -0.000000 1.000000 0.000000
vn -0.000000 1.000000 0.000000
vn 1.000000 -0.000000 0.000000
vn 1.000000 -0.000000 0.000000
vn 1.000000 -0.000000 0.000000
vn 1.000000 -0.000000 0.000000
vn 0.000000 1.000000 0.000000
vn 0.000000 1.000000 0.000000
vn 0.000000 1.000000 0.000000
vn 0.000000 1.000000 0.000000
vn -1.000000 0.000000 0.000000
vn -1.000000 0.000000 0.000000
vn -1.000000 0.000000 0.000000
vn -1.000000 0.000000 0.000000
vn 0.000000 1.000000 -0.000000
vn 0.000000 1.000000 -0.000000
vn 0.000000 1.000000 -0.000000
vn 0.000000 1.000000 -0.000000
vn -1.000000 0.000000 0.000000
vn -1.000000 0.000000 0.000000
vn -1.000000 0.000000 0.000000
vn -1.000000 0.000000 0.000000
vn 0.000000 -1.000000 0.000000
vn 0.000000 -1.000000 0.000000
vn 0.000000 -1.000000 0.000000
vn 0.000000 -1.000000 0.000000
vn 0.000000 1.000000 0.000000
vn 0.000000 1.000000 0.000000
vn 0.000000 1.000000 0.000000
vn 0.000000 1.000000 0.000000
vn 1.000000 0.000000 -0.000000
vn 1.000000 0.000000 -0.000000
vn 1.000000 0.000000 -0.000000
vn 1.000000 0.000000 -0.000000
vn 0.000000 1.000000 -0.000000
vn 0.000000 1.000000 -0.000000
vn 0.258819 0.965926 -0.000000
vn 0.258819 0.965926 -0.000000
vn 0.500000 0.866025 -0.000000
vn 0.500000 0.866025 -0.000000
vn 0.707107 0.707107 -0.000000
vn 0.707107 0.707107 -0.000000
vn 0.866025 0.500000 -0.000000
vn 0.866025 0.500000 -0.000000
vn 0.965926 0.258819 -0.000000
vn 0.965926 0.258819 -0.000000
vn 1.000000 -0.000000 0.000000
vn 1.000000 -0.000000 0.000000
vn 0.965926 -0.258819 0.000000
vn 0.965926 -0.258819 0.000000
vn 0.866025 -0.500000 0.000000
vn 0.866025 -0.500000 0.000000
vn 0.707107 -0.707107 0.000000
vn 0.707107 -0.707107 0.000000
vn 0.500000 -0.866025 0.000000
vn 0.500000 -0.866025 0.000000
vn 0.258819 -0.965926 0.000000
vn 0.258819 -0.965926 0.000000
vn 0.000000 -1.000000 0.000000
vn 0.000000 -1.000000 0.000000
vn 1.000000 0.000000 -0.000000
vn 1.000000 0.000000 -0.000000
vn 1.000000 0.000000 -0.000000
vn 1.000000 0.000000 -0.000000
vn 0.000000 -1.000000 0.000000
vn 0.000000 -1.000000 0.000000
vn 0.000000 -1.000000 0.000000
vn 0.000000 -1.000000 0.000000
vn -1.000000 0.000000 0.000000
vn -1.000000 0.000000 0.000000
vn -1.000000 0.000000 0.000000
vn -1.000000 0.000000 0.000000
vn 0.000000 -1.000000 0.000000
vn 0.000000 -1.000000 0.000000
vn -0.258819 -0.965926 0.000000
vn -0.258819 -0.965926 0.000000
vn -0.500000 -0.866025 0.000000
vn -0.500000 -0.866025 0.000000
vn -0.707107 -0.707107 0.000000
vn -0.707107 -0.707107 0.000000
vn -0.866025 -0.500000 0.000000
vn -0.866025 -0.500000 0.000000
vn -0.965926 -0.258819 0.000000
vn -0.965926 -0.258819 0.000000
vn -1.000000 -0.000000 0.000000
vn -1.000000 -0.000000 0.000000
vn -0.965926 0.258819 0.000000
vn -0.965926 0.258819 0.000000
vn -0.866025 0.500000 0.000000
vn -0.866025 0.500000 0.000000
vn -0.707107 0.707107 0.000000
vn -0.707107 0.707107 0.000000
vn -0.500000 0.866025 0.000000
vn -0.500000 0.866025 0.000000
vn -0.258819 0.965926 0.000000
vn -0.258819 0.965926 0.000000
vn -0.000000 1.000000 0.000000
vn -0.000000 1.000000 0.000000
vn -1.000000 0.000000 0.000000
vn -1.000000 0.000000 0.000000
vn -1.000000 0.000000 0.000000
vn -1.000000 0.000000 0.000000
vn 0.000000 0.000000 1.000000
vn 0.000000 0.000000 1.000000
vn 0.000000 0.000000 1.000000
vn 0.000000 0.000000 1.000000
vn 0.000000 0.000000 1.000000
vn 0.000000 0.000000 1.000000
vn 0.000000 0.000000 1.000000
vn 0.000000 0.000000 1.000000
vn 0.000000 0.000000 1.000000
vn 0.000000 0.000000 1.000000
vn 0.000000 0.000000 1.000000
vn 0.000000 0.000000 1.000000
vn 0.000000 0.000000 1.000000
vn 0.000000 0.000000 1.000000
vn 0.000000 0.000000 1.000000
vn 0.000000 0.000000 1.000000
vn 0.000000 0.000000 1.000000
vn 0.000000 0.000000 1.000000
vn 0.000000 0.000000 1.000000
vn 0.000000 0.000000 1.000000
vn 0.000000 0.000000 1.000000
vn 0.000000 0.000000 1.000000
vn 0.000000 0.000000 1.000000
vn 0.000000 0.000000 1.000000
vn 0.000000 0.000000 1.000000
vn 0.000000 0.000000 1.000000
vn 0.000000 0.000000 1.000000
vn 0.000000 0.000000 1.000000
vn 0.000000 0.000000 1.000000
vn 0.000000 0.000000 1.000000
vn 0.000000 0.000000 1.000000
vn 0.000000 0.000000 1.000000
vn 0.000000 0.000000 1.000000
vn 0.000000 0.000000 1.000000
vn 0.000000 0.000000 1.000000
vn 0.000000 0.000000 1.000000
vn 0.000000 0.000000 1.000000
vn 0.000000 0.000000 1.000000
vn 0.000000 0.000000 1.000000
vn 0.000000 0.000000 1.000000
vn 0.000000 0.000000 1.000000
vn 0.000000 0.000000 1.000000
vn 0.000000 0.000000 1.000000
vn 0.000000 0.000000 1.000000
vn 0.000000 0.000000 1.000000
vn 0.000000 0.000000 1.000000
vn 0.000000 -0.000000 -1.000000
vn 0.000000 -0.000000 -1.000000
vn 0.000000 -0.000000 -1.000000
vn 0.000000 -0.000000 -1.000000
vn 0.000000 -0.000000 -1.000000
vn 0.000000 -0.000000 -1.000000
vn 0.000000 -0.000000 -1.000000
vn 0.000000 -0.000000 -1.000000
vn 0.000000 -0.000000 -1.000000
vn 0.000000 -0.000000 -1.000000
vn 0.000000 -0.000000 -1.000000
vn 0.000000 -0.000000 -1.000000
vn 0.000000 -0.000000 -1.000000
vn 0.000000 -0.000000 -1.000000
vn 0.000000 -0.000000 -1.000000
vn 0.000000 -0.000000 -1.000000
vn 0.000000 -0.000000 -1.000000
vn 0.000000 -0.000000 -1.000000
vn 0.000000 -0.000000 -1.000000
vn 0.000000 -0.000000 -1.000000
vn 0.000000 -0.000000 -1.000000
vn 0.000000 -0.000000 -1.000000
vn 0.000000 -0.000000 -1.000000
vn 0.000000 -0.000000 -1.000000
vn 0.000000 -0.000000 -1.000000
vn 0.000000 -0.000000 -1.000000
vn 0.000000 -0.000000 -1.000000
vn 0.000000 -0.000000 -1.000000
vn 0.000000 -0.000000 -1.000000
vn 0.000000 -0.000000 -1.000000
vn 0.000000 -0.000000 -1.000000
vn 0.000000 -0.000000 -1.000000
vn 0.000000 -0.000000 -1.000000
vn 0.000000 -0.000000 -1.000000
vn 0.000000 -0.000000 -1.000000
vn 0.000000 -0.000000 -1.000000
vn 0.000000 -0.000000 -1.000000
vn 0.000000 -0.000000 -1.000000
vn 0.000000 -0.000000 -1.000000
vn 0.000000 -0.000000 -1.000000
vn 0.000000 -0.000000 -1.000000
vn 0.000000 -0.000000 -1.000000
vn 0.000000 -0.000000 -1.000000
vn 0.000000 -0.000000 -1.000000
vn 0.000000 -0.000000 -1.000000
vn 0.000000 -0.000000 -1.000000
usemtl FR4
f 1/1/1 2/2/2 4/3/3
f 4/3/3 2/2/2 3/4/4
f 5/5/5 1/6/6 6/7/7
f 6/7/7 1/6/6 4/8/8
f 7/9/9 5/10/10 8/11/11
f 8/11/11 5/10/10 6/12/12
f 9/13/13 7/14/14 10/15/15
f 10/15/15 7/14/14 8/16/16
f 11/17/17 9/18/18 12/19/19
f 12/19/19 9/18/18 10/20/20
f 13/21/21 11/22/22 14/23/23
f 14/23/23 11/22/22 12/24/24
f 15/25/25 13/26/26 16/27/27
f 16/27/27 13/26/26 14/28/28
f 17/29/29 15/30/30 18/31/31
f 18/31/31 15/30/30 16/32/32
f 19/33/33 17/34/34 20/35/35
f 20/35/35 17/34/34 18/36/36
f 21/37/37 19/38/38 22/39/39
f 22/39/39 19/38/38 20/40/40
f 23/41/41 21/42/42 24/43/43
f 24/43/43 21/42/42 22/44/44
f 25/45/45 23/46/46 26/47/47
f 26/47/47 23/46/46 24/48/48
f 27/49/49 25/50/50 28/51/51
f 28/51/51 25/50/50 26/52/52
f 29/53/53 27/54/54 30/55/55
f 30/55/55 27/54/54 28/56/56
f 31/57/57 29/58/58 32/59/59
f 32/59/59 29/58/58 30/60/60
f 2/61/61 31/62/62 3/63/63
f 3/63/63 31/62/62 32/64/64
f 33/65/65 34/66/66 36/67/67
f 36/67/67 34/66/66 35/68/68
f 37/69/69 33/70/70 38/71/71
f 38/71/71 33/70/70 36/72/72
f 62/73/73 39/74/74 61/75/75
f 61/75/75 39/74/74 40/76/76
f 61/75/75 40/76/76 60/77/77
f 60/77/77 40/76/76 41/78/78
f 60/77/77 41/78/78 59/79/79
f 59/79/79 41/78/78 42/80/80
f 59/79/79 42/80/80 58/81/81
f 58/81/81 42/80/80 43/82/82
f 58/81/81 43/82/82 57/83/83
f 57/83/83 43/82/82 44/84/84
f 57/83/83 44/84/84 56/85/85
f 56/85/85 44/84/84 45/86/86
f 56/85/85 45/86/86 55/87/87
f 55/87/87 45/86/86 46/88/88
f 55/87/87 46/88/88 54/89/89
f 54/89/89 46/88/88 47/90/90
f 54/89/89 47/90/90 53/91/91
f 53/91/91 47/90/90 48/92/92
f 53/91/91 48/92/92 52/93/93
f 52/93/93 48/92/92 49/94/94
f 52/93/93 49/94/94 51/95/95
f 51/95/95 49/94/94 50/96/96
f 51/95/95 50/96/96 38/97/97
f 38/97/97 50/96/96 37/98/98
f 63/99/99 39/100/100 64/101/101
f 64/101/101 39/100/100 62/102/102
f 65/103/103 63/104/104 66/105/105
f 66/105/105 63/104/104 64/106/106
f 67/107/107 65/108/108 68/109/109
f 68/109/109 65/108/108 66/110/110
f 92/111/111 69/112/112 91/113/113
f 91/113/113 69/112/112 70/114/114
f 91/113/113 70/114/114 90/115/115
f 90/115/115 70/114/114 71/116/116
f 90/115/115 71/116/116 89/117/117
f 89/117/117 71/116/116 72/118/118
f 89/117/117 72/118/118 88/119/119
f 88/119/119 72/118/118 73/120/120
f 88/119/119 73/120/120 87/121/121
f 87/121/121 73/120/120 74/122/122
f 87/121/121 74/122/122 86/123/123
f 86/123/123 74/122/122 75/124/124
f 86/123/123 75/124/124 85/125/125
f 85/125/125 75/124/124 76/126/126
f 85/125/125 76/126/126 84/127/127
f 84/127/127 76/126/126 77/128/128
f 84/127/127 77/128/128 83/129/129
f 83/129/129 77/128/128 78/130/130
f 83/129/129 78/130/130 82/131/131
f 82/131/131 78/130/130 79/132/132
f 82/131/131 79/132/132 81/133/133
f 81/133/133 79/132/132 80/134/134
f 81/133/133 80/134/134 68/135/135
f 68/135/135 80/134/134 67/136/136
f 34/137/137 69/138/138 35/139/139
f 35/139/139 69/138/138 92/140/140
f 32/141/141 57/142/142 3/143/143
f 3/143/143 57/142/142 56/144/144
f 3/143/143 56/144/144 4/145/145
f 4/145/145 56/144/144 55/146/146
f 4/145/145 55/146/146 6/147/147
f 6/147/147 55/146/146 54/148/148
f 6/147/147 54/148/148 53/149/149
f 30/150/150 62/151/151 32/141/141
f 32/141/141 62/151/151 61/152/152
f 32/141/141 61/152/152 60/153/153
f 28/154/154 26/155/155 30/150/150
f 30/150/150 26/155/155 64/156/156
f 30/150/150 64/156/156 62/151/151
f 26/155/155 24/157/157 64/156/156
f 64/156/156 24/157/157 66/158/158
f 66/158/158 24/157/157 20/159/159
f 66/158/158 20/159/159 68/160/160
f 68/160/160 20/159/159 18/161/161
f 68/160/160 18/161/161 81/162/162
f 81/162/162 18/161/161 82/163/163
f 82/163/163 18/161/161 83/164/164
f 83/164/164 18/161/161 84/165/165
f 84/165/165 18/161/161 85/166/166
f 85/166/166 18/161/161 16/167/167
f 85/166/166 16/167/167 86/168/168
f 86/168/168 16/167/167 87/169/169
f 87/169/169 16/167/167 14/170/170
f 87/169/169 14/170/170 88/171/171
f 88/171/171 14/170/170 89/172/172
f 89/172/172 14/170/170 90/173/173
f 90/173/173 14/170/170 91/174/174
f 91/174/174 14/170/170 35/175/175
f 91/174/174 35/175/175 92/176/176
f 24/157/157 22/177/177 20/159/159
f 14/170/170 12/178/178 35/175/175
f 35/175/175 12/178/178 36/179/179
f 36/179/179 12/178/178 8/180/180
f 36/179/179 8/180/180 38/181/181
f 38/181/181 8/180/180 6/147/147
f 38/181/181 6/147/147 51/182/182
f 51/182/182 6/147/147 52/183/183
f 52/183/183 6/147/147 53/149/149
f 12/178/178 10/184/184 8/180/180
f 60/153/153 59/185/185 32/141/141
f 32/141/141 59/185/185 58/186/186
f 32/141/141 58/186/186 57/142/142
f 2/187/187 44/188/188 31/189/189
f 31/189/189 44/188/188 43/190/190
f 31/189/189 43/190/190 42/191/191
f 44/188/188 2/187/187 45/192/192
f 45/192/192 2/187/187 1/193/193
f 45/192/192 1/193/193 46/194/194
f 46/194/194 1/193/193 5/195/195
f 46/194/194 5/195/195 47/196/196
f 47/196/196 5/195/195 48/197/197
f 48/197/197 5/195/195 49/198/198
f 49/198/198 5/195/195 50/199/199
f 50/199/199 5/195/195 37/200/200
f 37/200/200 5/195/195 7/201/201
f 37/200/200 7/201/201 33/202/202
f 33/202/202 7/201/201 11/203/203
f 33/202/202 11/203/203 13/204/204
f 7/201/201 9/205/205 11/203/203
f 15/206/206 74/207/207 13/204/204
f 13/204/204 74/207/207 73/208/208
f 13/204/204 73/208/208 72/209/209
f 17/210/210 76/211/211 15/206/206
f 15/206/206 76/211/211 75/212/212
f 15/206/206 75/212/212 74/207/207
f 19/213/213 67/214/214 17/210/210
f 17/210/210 67/214/214 80/215/215
f 17/210/210 80/215/215 79/216/216
f 21/217/217 23/218/218 19/213/213
f 19/213/213 23/218/218 65/219/219
f 19/213/213 65/219/219 67/214/214
f 23/218/218 25/220/220 65/219/219
f 65/219/219 25/220/220 63/221/221
f 63/221/221 25/220/220 29/222/222
f 63/221/221 29/222/222 39/223/223
f 39/223/223 29/222/222 31/189/189
f 39/223/223 31/189/189 40/224/224
f 40/224/224 31/189/189 41/225/225
f 41/225/225 31/189/189 42/191/191
f 25/220/220 27/226/226 29/222/222
f 69/227/227 34/228/228 70/229/229
f 70/229/229 34/228/228 13/204/204
f 70/229/229 13/204/204 71/230/230
f 71/230/230 13/204/204 72/209/209
f 34/228/228 33/202/202 13/204/204
f 79/216/216 78/231/231 17/210/210
f 17/210/210 78/231/231 77/232/232
f 17/210/210 77/232/232 76/211/211
# 92 vertices
# 232 texture params
# 232 normals
# 184 facets

# 1 groups
